<svg width="21" height="18" viewBox="0 0 21 18" fill="none" xmlns="http://www.w3.org/2000/svg">
<path d="M12.0709 8.49252C12.0915 9.00548 11.9591 9.31094 11.5988 9.50329C11.2562 9.68633 10.9424 9.57957 10.651 9.40084C10.4973 9.30708 10.3653 9.18323 10.2632 9.03706C9.73641 8.26062 9.20224 7.48717 8.7206 6.68421C8.57927 6.41787 8.51941 6.11747 8.54813 5.81864C8.56095 5.68021 8.60715 5.54674 8.68295 5.42897C8.75875 5.31121 8.86202 5.2126 8.98432 5.14103C9.1066 5.06962 9.24445 5.02741 9.38659 5.01777C9.52874 5.00814 9.67115 5.03148 9.80221 5.08585C10.1333 5.22311 10.4194 5.44633 10.6291 5.73144C11.1001 6.44948 11.5019 7.21177 11.9102 7.96725C11.9858 8.1352 12.0398 8.31166 12.0709 8.49252Z" fill="#FFCA04"/>
<path d="M18.273 6.64637C17.9661 7.05792 17.6709 7.21186 17.2698 7.13442C16.8885 7.06098 16.7118 6.78042 16.598 6.45813C16.5376 6.28853 16.513 6.10917 16.5257 5.93133C16.6053 4.99643 16.6773 4.05921 16.8086 3.13213C16.8665 2.83622 17.0091 2.56515 17.2196 2.35107C17.3167 2.25159 17.4366 2.17699 17.5697 2.13322C17.7027 2.08944 17.845 2.07785 17.9851 2.09925C18.1251 2.12076 18.2587 2.17475 18.3752 2.25676C18.4917 2.33877 18.5877 2.44657 18.6553 2.57133C18.8261 2.88644 18.9078 3.23996 18.8913 3.59352C18.8051 4.44789 18.6373 5.29311 18.4789 6.13714C18.4319 6.31522 18.3627 6.4863 18.273 6.64637Z" fill="#FFCA04"/>
<path d="M1.64225 12.7074C1.20896 11.9473 1.516 11.1707 2.19448 10.9879C2.41037 10.9214 2.63971 10.9102 2.86186 10.9555C3.68054 11.1752 4.50148 11.3995 5.29663 11.6923C5.68246 11.8345 6.04981 12.0814 6.14444 12.5735C6.25456 13.1464 5.99251 13.6001 5.42873 13.7109C5.26359 13.7507 5.092 13.7577 4.92356 13.732C4.09388 13.5599 3.25958 13.3988 2.44491 13.1681C2.10997 13.0733 1.82023 12.8133 1.64225 12.7074Z" fill="#FFCA04"/>
</svg>
