<svg width="135" height="8" viewBox="0 0 135 8" fill="none" xmlns="http://www.w3.org/2000/svg">
<path fill-rule="evenodd" clip-rule="evenodd" d="M134.947 2.54434C134.396 1.60124 129.663 1.20412 115.438 0.873212C102.164 0.558844 86.7121 -0.351151 59.7145 0.145219C39.0782 0.525769 13.3829 2.04799 13.3829 2.89181C13.3829 3.504 14.3847 3.52055 23.9515 2.97454C32.7921 2.47817 37.3251 2.36235 42.8599 2.22999C20.6708 3.52055 15.9374 4.36435 4.11654 5.17508C-3.29653 5.688 1.03611 7.16058 3.74088 7.01167C3.76592 7.01167 38.2517 5.15854 41.5075 5.25781C41.808 5.27436 38.5272 5.57218 34.1946 5.91964C22.0983 6.91238 24.4274 8.56693 33.4933 7.80583C63.9971 5.24125 92.6977 4.44704 114.812 5.5556C121.799 5.90306 122.575 5.90306 122.575 5.47287C122.575 4.71177 120.672 4.13271 117.692 4.01689C113.034 3.81834 95.102 3.25577 86.9876 3.09031C86.3615 3.07377 86.662 2.75945 87.213 2.72636C90.5188 2.51126 116.765 2.67666 127.083 2.9083C134.672 3.07375 135.223 3.05726 134.947 2.54434Z" fill="white"/>
</svg>
