<svg width="22" height="22" viewBox="0 0 22 22" fill="none" xmlns="http://www.w3.org/2000/svg">
<path d="M1.8335 9.85417C1.8335 12.2853 2.79927 14.6169 4.51835 16.336C6.23743 18.0551 8.56901 19.0208 11.0002 19.0208C13.4313 19.0208 15.7629 18.0551 17.482 16.336C19.2011 14.6169 20.1668 12.2853 20.1668 9.85417C20.1668 7.42302 19.2011 5.09144 17.482 3.37235C15.7629 1.65327 13.4313 0.6875 11.0002 0.6875C8.56901 0.6875 6.23743 1.65327 4.51835 3.37235C2.79927 5.09144 1.8335 7.42302 1.8335 9.85417Z" fill="#FFE500"/>
<path d="M11.0002 0.6875C9.18717 0.6875 7.41489 1.22512 5.90744 2.23236C4.39999 3.23961 3.22507 4.67125 2.53127 6.34624C1.83747 8.02122 1.65594 9.86434 2.00964 11.6425C2.36333 13.4207 3.23637 15.054 4.51835 16.336C5.80034 17.618 7.43368 18.491 9.21184 18.8447C10.99 19.1984 12.8331 19.0169 14.5081 18.3231C16.1831 17.6293 17.6147 16.4543 18.622 14.9469C19.6292 13.4394 20.1668 11.6672 20.1668 9.85417C20.1668 7.42302 19.2011 5.09144 17.482 3.37235C15.7629 1.65327 13.4313 0.6875 11.0002 0.6875ZM11.0002 17.6458C9.34581 17.6458 7.7286 17.1553 6.35305 16.2361C4.9775 15.317 3.90539 14.0107 3.2723 12.4822C2.6392 10.9538 2.47356 9.27197 2.79631 7.6494C3.11906 6.02683 3.91571 4.5364 5.08551 3.3666C6.25532 2.19679 7.74575 1.40014 9.36832 1.07739C10.9909 0.75464 12.6727 0.920287 14.2012 1.55338C15.7296 2.18648 17.0359 3.25859 17.9551 4.63414C18.8742 6.00969 19.3647 7.62689 19.3647 9.28125C19.3647 11.4997 18.4835 13.6272 16.9148 15.1959C15.3462 16.7646 13.2186 17.6458 11.0002 17.6458Z" fill="#EBCB00"/>
<path d="M8.25 2.52087C8.25 2.70321 8.53973 2.87808 9.05546 3.00701C9.57118 3.13594 10.2707 3.20837 11 3.20837C11.7293 3.20837 12.4288 3.13594 12.9445 3.00701C13.4603 2.87808 13.75 2.70321 13.75 2.52087C13.75 2.33854 13.4603 2.16367 12.9445 2.03474C12.4288 1.90581 11.7293 1.83337 11 1.83337C10.2707 1.83337 9.57118 1.90581 9.05546 2.03474C8.53973 2.16367 8.25 2.33854 8.25 2.52087Z" fill="#FFF48C"/>
<path d="M1.8335 9.85417C1.8335 12.2853 2.79927 14.6169 4.51835 16.336C6.23743 18.0551 8.56901 19.0208 11.0002 19.0208C13.4313 19.0208 15.7629 18.0551 17.482 16.336C19.2011 14.6169 20.1668 12.2853 20.1668 9.85417C20.1668 7.42302 19.2011 5.09144 17.482 3.37235C15.7629 1.65327 13.4313 0.6875 11.0002 0.6875C8.56901 0.6875 6.23743 1.65327 4.51835 3.37235C2.79927 5.09144 1.8335 7.42302 1.8335 9.85417V9.85417Z" stroke="#45413C" stroke-width="0.458333" stroke-linecap="round" stroke-linejoin="round"/>
<path d="M4.854 10.6471C4.854 10.8294 4.97473 11.0043 5.18961 11.1332C5.4045 11.2622 5.69594 11.3346 5.99984 11.3346C6.30373 11.3346 6.59518 11.2622 6.81006 11.1332C7.02495 11.0043 7.14567 10.8294 7.14567 10.6471C7.14567 10.4648 7.02495 10.2899 6.81006 10.161C6.59518 10.032 6.30373 9.95959 5.99984 9.95959C5.69594 9.95959 5.4045 10.032 5.18961 10.161C4.97473 10.2899 4.854 10.4648 4.854 10.6471Z" fill="#FFAA54"/>
<path d="M14.855 10.6471C14.855 10.8294 14.9757 11.0043 15.1906 11.1332C15.4055 11.2622 15.6969 11.3346 16.0008 11.3346C16.3047 11.3346 16.5962 11.2622 16.811 11.1332C17.0259 11.0043 17.1466 10.8294 17.1466 10.6471C17.1466 10.4648 17.0259 10.2899 16.811 10.161C16.5962 10.032 16.3047 9.95959 16.0008 9.95959C15.6969 9.95959 15.4055 10.032 15.1906 10.161C14.9757 10.2899 14.855 10.4648 14.855 10.6471Z" fill="#FFAA54"/>
<path d="M7.20973 12.8334C7.14465 12.8335 7.08034 12.8474 7.02107 12.8743C6.9618 12.9011 6.90893 12.9403 6.86598 12.9892C6.82273 13.0373 6.79016 13.0941 6.77041 13.1557C6.75066 13.2173 6.74418 13.2824 6.7514 13.3467C6.87907 14.3836 7.38153 15.3381 8.16412 16.0302C8.94671 16.7224 9.95539 17.1044 11.0001 17.1044C12.0449 17.1044 13.0536 16.7224 13.8362 16.0302C14.6188 15.3381 15.1212 14.3836 15.2489 13.3467C15.2561 13.2824 15.2496 13.2173 15.2299 13.1557C15.2101 13.0941 15.1776 13.0373 15.1343 12.9892C15.0914 12.9403 15.0385 12.9011 14.9792 12.8743C14.92 12.8474 14.8556 12.8335 14.7906 12.8334H7.20973Z" fill="#FFB0CA" stroke="#45413C" stroke-width="0.458333" stroke-linecap="round" stroke-linejoin="round"/>
<path d="M14.3731 15.4596C13.3348 14.9116 12.1735 14.6386 10.9998 14.6666C9.8261 14.6386 8.66476 14.9116 7.62646 15.4596C8.02579 15.9736 8.53731 16.3895 9.12195 16.6757C9.70659 16.9618 10.3489 17.1106 10.9998 17.1106C11.6507 17.1106 12.293 16.9618 12.8776 16.6757C13.4623 16.3895 13.9738 15.9736 14.3731 15.4596Z" fill="#FF87AF" stroke="#45413C" stroke-width="0.458333" stroke-linecap="round" stroke-linejoin="round"/>
<path d="M14.447 14.7721C14.4674 14.7336 14.4999 14.7029 14.5396 14.6848C14.5793 14.6668 14.6238 14.6624 14.6662 14.6723C14.7087 14.6823 14.7466 14.706 14.7741 14.7398C14.8016 14.7736 14.8171 14.8156 14.8183 14.8592V19.0712C14.8035 19.2587 14.7187 19.4337 14.5806 19.5613C14.4426 19.689 14.2615 19.7599 14.0735 19.7599C13.8855 19.7599 13.7043 19.689 13.5663 19.5613C13.4282 19.4337 13.3434 19.2587 13.3287 19.0712V16.7796C13.3249 16.3482 13.4893 15.9322 13.787 15.62C14.0478 15.3716 14.2702 15.0859 14.447 14.7721Z" fill="#4AEFF7" stroke="#45413C" stroke-width="0.458333" stroke-linecap="round" stroke-linejoin="round"/>
<path opacity="0.15" d="M3.66699 20.8541C3.66699 21.0365 4.43961 21.2113 5.81488 21.3403C7.19014 21.4692 9.0554 21.5416 11.0003 21.5416C12.9452 21.5416 14.8105 21.4692 16.1858 21.3403C17.561 21.2113 18.3337 21.0365 18.3337 20.8541C18.3337 20.6718 17.561 20.4969 16.1858 20.368C14.8105 20.2391 12.9452 20.1666 11.0003 20.1666C9.0554 20.1666 7.19014 20.2391 5.81488 20.368C4.43961 20.4969 3.66699 20.6718 3.66699 20.8541Z" fill="#45413C"/>
<path d="M17.2702 7.25086C17.1607 7.4993 17.0019 7.72289 16.8033 7.90805C16.6048 8.0932 16.3706 8.23606 16.1152 8.32795L13.3652 9.24461L12.2239 6.56795C12.1217 6.31569 12.0727 6.04509 12.0798 5.77302C12.0869 5.50096 12.15 5.23328 12.2652 4.9867C12.3611 4.77555 12.5031 4.58857 12.6808 4.43946C12.8585 4.29036 13.0672 4.18292 13.2918 4.12503C13.5977 4.05423 13.9191 4.10371 14.1896 4.26324C14.46 4.42277 14.6588 4.68014 14.7447 4.98211L14.9602 5.6742L15.6156 5.37628C15.8977 5.23903 16.2218 5.2158 16.5206 5.3114C16.8193 5.40701 17.0697 5.6141 17.2197 5.88961C17.3316 6.09756 17.3944 6.3284 17.4031 6.56438C17.4119 6.80036 17.3664 7.03521 17.2702 7.25086Z" fill="#FF6242"/>
<path d="M12.7421 5.37627C13.0499 5.30268 13.3742 5.35073 13.6475 5.5104C13.9207 5.67008 14.1218 5.92906 14.2088 6.23335L14.4196 6.92544L15.0796 6.62752C15.3619 6.49143 15.6856 6.4688 15.9841 6.56431C16.2825 6.65981 16.533 6.86617 16.6838 7.14085C16.8016 7.36201 16.86 7.60994 16.8534 7.86044C17.0328 7.68507 17.1788 7.47851 17.2842 7.25085C17.3854 7.03476 17.4352 6.79815 17.4296 6.55959C17.4241 6.32102 17.3633 6.08699 17.2521 5.87585C17.1021 5.60034 16.8517 5.39325 16.5529 5.29764C16.2541 5.20204 15.93 5.22527 15.6479 5.36252L14.9925 5.66044L14.7771 4.96835C14.6883 4.66197 14.4834 4.40236 14.206 4.24483C13.9287 4.08731 13.6007 4.04432 13.2921 4.12502C13.0579 4.18555 12.841 4.29994 12.6588 4.45909C12.4766 4.61823 12.334 4.81773 12.2425 5.04169C12.1405 5.27356 12.0815 5.52204 12.0684 5.77502C12.2516 5.58221 12.4849 5.44415 12.7421 5.37627Z" fill="#FF866E"/>
<path d="M17.2702 7.25086C17.1607 7.4993 17.0019 7.72289 16.8033 7.90805C16.6047 8.0932 16.3706 8.23606 16.1152 8.32795L13.3652 9.24461L12.2239 6.56795C12.1217 6.31569 12.0727 6.04509 12.0798 5.77302C12.0869 5.50096 12.15 5.23328 12.2652 4.9867C12.3611 4.77555 12.5031 4.58857 12.6808 4.43946C12.8585 4.29036 13.0672 4.18292 13.2918 4.12503C13.5977 4.05423 13.9191 4.10371 14.1896 4.26324C14.46 4.42277 14.6588 4.68014 14.7447 4.98211L14.9602 5.6742L15.6156 5.37628C15.8977 5.23903 16.2218 5.2158 16.5206 5.3114C16.8193 5.40701 17.0697 5.6141 17.2197 5.88961C17.3316 6.09756 17.3944 6.3284 17.4031 6.56438C17.4119 6.80036 17.3664 7.03521 17.2702 7.25086V7.25086Z" stroke="#45413C" stroke-width="0.458333" stroke-linecap="round" stroke-linejoin="round"/>
<path d="M2.88771 3.66666C3.15035 3.26313 3.55852 2.97645 4.02724 2.86631C4.49595 2.75618 4.98908 2.83108 5.40396 3.07541L6.37104 3.62083L6.78354 2.59416C6.95152 2.14343 7.28673 1.77476 7.71949 1.56478C8.15226 1.3548 8.64929 1.31966 9.10729 1.46666C9.45582 1.58253 9.77264 1.77782 10.0327 2.03713C10.2928 2.29644 10.4891 2.61266 10.606 2.96083C10.7494 3.3513 10.8115 3.76692 10.7887 4.18224C10.7658 4.59757 10.6584 5.00386 10.4731 5.37625L8.40146 9.32708L4.29938 7.57166C3.92076 7.40019 3.58115 7.15319 3.30137 6.84583C3.02158 6.53846 2.80752 6.17719 2.67229 5.78416C2.5395 5.43907 2.48981 5.06756 2.52723 4.6997C2.56466 4.33184 2.68815 3.97795 2.88771 3.66666Z" fill="#FF6242"/>
<path d="M3.60754 5.6925C3.87018 5.28896 4.27835 5.00228 4.74707 4.89214C5.21578 4.78201 5.70891 4.85691 6.12379 5.10125L7.09087 5.6375L7.50337 4.61083C7.67046 4.15926 8.0053 3.78954 8.43816 3.57866C8.87102 3.36778 9.36854 3.33199 9.82712 3.47875C10.1924 3.59817 10.5207 3.80969 10.7805 4.09291C10.7908 3.70816 10.7318 3.32469 10.6063 2.96083C10.4894 2.61266 10.2931 2.29644 10.033 2.03713C9.77288 1.77782 9.45606 1.58253 9.10754 1.46666C8.64954 1.31966 8.1525 1.3548 7.71974 1.56478C7.28697 1.77476 6.95177 2.14343 6.78379 2.59416L6.37129 3.62083L5.4042 3.08458C4.99041 2.83938 4.49806 2.76305 4.02945 2.87146C3.56084 2.97986 3.15203 3.26466 2.88795 3.66666C2.68986 3.97684 2.56719 4.32911 2.52978 4.69524C2.49237 5.06137 2.54126 5.43117 2.67254 5.775C2.80329 6.14248 3.00061 6.48274 3.25462 6.77875C3.27147 6.39134 3.39347 6.01583 3.60754 5.6925Z" fill="#FF866E"/>
<path d="M2.88771 3.66666C3.15035 3.26313 3.55852 2.97645 4.02724 2.86631C4.49595 2.75618 4.98908 2.83108 5.40396 3.07541L6.37104 3.62083L6.78354 2.59416C6.95152 2.14343 7.28673 1.77476 7.71949 1.56478C8.15226 1.3548 8.64929 1.31966 9.10729 1.46666C9.45582 1.58253 9.77264 1.77782 10.0327 2.03713C10.2928 2.29644 10.4891 2.61266 10.606 2.96083C10.7494 3.3513 10.8115 3.76692 10.7887 4.18224C10.7658 4.59757 10.6584 5.00386 10.4731 5.37625L8.40146 9.32708L4.29938 7.57166C3.92076 7.40019 3.58115 7.15319 3.30137 6.84583C3.02158 6.53846 2.80752 6.17719 2.67229 5.78416C2.5395 5.43907 2.48981 5.06756 2.52723 4.6997C2.56466 4.33184 2.68815 3.97795 2.88771 3.66666V3.66666Z" stroke="#45413C" stroke-width="0.458333" stroke-linecap="round" stroke-linejoin="round"/>
</svg>
