<svg width="54" height="63" viewBox="0 0 54 63" fill="none" xmlns="http://www.w3.org/2000/svg">
<path fill-rule="evenodd" clip-rule="evenodd" d="M29.6423 11.0652C25.0034 13.37 14.5469 24.7467 11.1366 31.1216C9.08046 34.971 9.33128 35.1917 15.9763 35.5595L20.7155 35.8292C12.1146 50.5404 12.9922 48.9712 12.917 49.1183C11.0364 52.2812 13.5941 54.3899 16.3022 51.9135C16.3273 51.889 39.5721 34.2354 43.7346 28.3755C44.2111 27.7135 44.0857 26.9534 43.0326 26.1933C41.3024 24.9428 38.9703 24.5505 30.4698 23.864C29.1408 23.7659 28.539 23.6188 28.6393 23.4227C29.2662 21.927 31.6734 15.6502 32.8268 13.1983C34.1809 10.3296 34.0556 8.85854 29.6423 11.0652ZM27.912 16.5574C27.6864 17.0723 24.903 23.5943 24.7776 23.864C24.1257 25.139 24.552 25.801 26.1819 25.9726C31.5981 26.5366 33.7546 26.7327 35.9362 26.8308C39.547 27.0024 39.5722 26.8553 35.7607 30.6067C31.6985 34.6277 21.3173 43.9449 21.0916 43.7242C20.891 43.5281 24.2261 37.3003 25.1288 36.1479C26.7587 34.0638 26.2571 33.7696 21.0665 33.7696C18.7345 33.7696 17.2801 33.7206 16.1768 33.647C15.1487 33.5734 14.5218 32.4946 15.0233 31.5874C16.904 28.2283 20.2641 24.0357 25.8559 18.0286C28.4136 15.3315 28.4637 15.2825 27.912 16.5574Z" fill="#0CFFD3"/>
</svg>
