<svg width="25" height="24" viewBox="0 0 25 24" fill="none" xmlns="http://www.w3.org/2000/svg">
<g clip-path="url(#clip0_226_17801)">
<path d="M4.87161 10.33C4.87161 12.8045 5.85459 15.1776 7.60431 16.9273C9.35402 18.677 11.7271 19.66 14.2016 19.66C16.6761 19.66 19.0492 18.677 20.7989 16.9273C22.5486 15.1776 23.5316 12.8045 23.5316 10.33C23.5316 7.85553 22.5486 5.48241 20.7989 3.73269C19.0492 1.98298 16.6761 1 14.2016 1C11.7271 1 9.35402 1.98298 7.60431 3.73269C5.85459 5.48241 4.87161 7.85553 4.87161 10.33Z" fill="#FFE500"/>
<path d="M14.2016 1C12.3563 1 10.5524 1.5472 9.01812 2.57239C7.4838 3.59758 6.28796 5.05473 5.58179 6.75956C4.87562 8.4644 4.69086 10.3404 5.05086 12.1502C5.41086 13.96 6.29946 15.6225 7.60428 16.9273C8.9091 18.2321 10.5716 19.1207 12.3814 19.4807C14.1912 19.8407 16.0672 19.656 17.772 18.9498C19.4769 18.2436 20.934 17.0478 21.9592 15.5135C22.9844 13.9792 23.5316 12.1753 23.5316 10.33C23.5322 9.10458 23.2914 7.89105 22.8227 6.75879C22.3541 5.62652 21.6669 4.59773 20.8004 3.73123C19.9339 2.86473 18.9051 2.17751 17.7728 1.70887C16.6405 1.24022 15.427 0.999344 14.2016 1ZM14.2016 18.26C12.5204 18.26 10.8771 17.7615 9.47924 16.8275C8.08142 15.8935 6.99196 14.566 6.34861 13.0128C5.70527 11.4596 5.53694 9.75057 5.86491 8.10173C6.19289 6.4529 7.00243 4.93834 8.19118 3.74959C9.37993 2.56085 10.8945 1.7513 12.5433 1.42333C14.1922 1.09535 15.9012 1.26368 17.4544 1.90703C19.0076 2.55037 20.3351 3.63984 21.2691 5.03765C22.2031 6.43547 22.7016 8.07886 22.7016 9.76C22.7016 12.0143 21.8061 14.1763 20.212 15.7704C18.6179 17.3645 16.4559 18.26 14.2016 18.26Z" fill="#EBCB00"/>
<path d="M11.4016 2.86498C11.4016 3.05063 11.6966 3.22868 12.2217 3.35995C12.7468 3.49123 13.459 3.56498 14.2016 3.56498C14.9442 3.56498 15.6564 3.49123 16.1815 3.35995C16.7066 3.22868 17.0016 3.05063 17.0016 2.86498C17.0016 2.67933 16.7066 2.50128 16.1815 2.37C15.6564 2.23873 14.9442 2.16498 14.2016 2.16498C13.459 2.16498 12.7468 2.23873 12.2217 2.37C11.6966 2.50128 11.4016 2.67933 11.4016 2.86498Z" fill="#FFF48C"/>
<path d="M4.8816 19.705C4.92958 19.5012 5.03372 19.315 5.18219 19.1674C5.33067 19.0198 5.51754 18.9168 5.7216 18.87L7.4066 18.5C7.43656 18.4923 7.46311 18.4748 7.48211 18.4504C7.50111 18.426 7.51148 18.396 7.5116 18.365C7.51174 18.3334 7.50155 18.3027 7.4826 18.2774C7.46365 18.2521 7.43696 18.2337 7.4066 18.225L5.7216 17.84C5.51715 17.7923 5.33013 17.6884 5.18169 17.5399C5.03324 17.3915 4.92929 17.2045 4.8816 17L4.4916 15.315C4.48348 15.2854 4.46587 15.2594 4.44148 15.2408C4.41709 15.2222 4.38727 15.2121 4.3566 15.2121C4.32593 15.2121 4.29611 15.2222 4.27172 15.2408C4.24733 15.2594 4.22972 15.2854 4.2216 15.315L3.8316 17C3.78391 17.2045 3.67996 17.3915 3.53151 17.5399C3.38306 17.6884 3.19604 17.7923 2.9916 17.84L1.3116 18.225C1.28031 18.2328 1.2525 18.2508 1.23258 18.2761C1.21266 18.3015 1.20176 18.3328 1.2016 18.365C1.20199 18.3966 1.21308 18.4272 1.23306 18.4517C1.25303 18.4762 1.28071 18.4932 1.3116 18.5L2.9916 18.89C3.19617 18.9357 3.38362 19.0383 3.53228 19.1861C3.68093 19.3339 3.78471 19.5207 3.8316 19.725L4.2216 21.41C4.22972 21.4396 4.24733 21.4657 4.27172 21.4843C4.29611 21.5029 4.32593 21.5129 4.3566 21.5129C4.38727 21.5129 4.41709 21.5029 4.44148 21.4843C4.46587 21.4657 4.48348 21.4396 4.4916 21.41L4.8816 19.705Z" fill="white" stroke="#45413C" stroke-width="0.5" stroke-linecap="round" stroke-linejoin="round"/>
<path d="M23.3016 3L24.6166 2.56C24.6408 2.55183 24.662 2.53642 24.6772 2.51586C24.6924 2.49529 24.7009 2.47056 24.7016 2.445C24.7012 2.41876 24.6929 2.39325 24.6777 2.37183C24.6625 2.35041 24.6412 2.33408 24.6166 2.325L23.5316 2C23.4592 1.97476 23.3936 1.93323 23.3399 1.87861C23.2861 1.82399 23.2457 1.75775 23.2216 1.685L22.8616 0.605C22.8561 0.576658 22.8413 0.550954 22.8196 0.531942C22.7978 0.51293 22.7704 0.501692 22.7416 0.5C22.716 0.500704 22.6913 0.509231 22.6707 0.524431C22.6502 0.53963 22.6348 0.56077 22.6266 0.585L22.2666 1.665C22.2447 1.74197 22.2047 1.81257 22.1499 1.87086C22.0951 1.92915 22.0271 1.97344 21.9516 2L20.8666 2.36C20.842 2.36908 20.8207 2.38541 20.8055 2.40683C20.7903 2.42825 20.782 2.45376 20.7816 2.48C20.7823 2.50556 20.7908 2.53029 20.806 2.55086C20.8212 2.57142 20.8424 2.58683 20.8666 2.595L21.9516 2.935C22.0249 2.95958 22.0914 3.00082 22.1461 3.05548C22.2008 3.11014 22.242 3.17672 22.2666 3.25L22.6266 4.335C22.6348 4.35923 22.6502 4.38037 22.6707 4.39557C22.6913 4.41077 22.716 4.4193 22.7416 4.42C22.7678 4.4196 22.7933 4.41127 22.8148 4.3961C22.8362 4.38093 22.8525 4.35963 22.8616 4.335L23.3016 3Z" fill="white" stroke="#45413C" stroke-width="0.5" stroke-linecap="round" stroke-linejoin="round"/>
<path opacity="0.15" d="M6.53159 22.255C6.53159 22.3535 6.72467 22.451 7.09982 22.542C7.47498 22.633 8.02484 22.7157 8.71803 22.7853C9.41122 22.855 10.2342 22.9102 11.1399 22.9479C12.0455 22.9856 13.0163 23.005 13.9966 23.005C14.9769 23.005 15.9476 22.9856 16.8533 22.9479C17.759 22.9102 18.5819 22.855 19.2751 22.7853C19.9683 22.7157 20.5182 22.633 20.8933 22.542C21.2685 22.451 21.4616 22.3535 21.4616 22.255C21.4616 22.1565 21.2685 22.059 20.8933 21.968C20.5182 21.877 19.9683 21.7943 19.2751 21.7247C18.5819 21.655 17.759 21.5998 16.8533 21.5621C15.9476 21.5244 14.9769 21.505 13.9966 21.505C13.0163 21.505 12.0455 21.5244 11.1399 21.5621C10.2342 21.5998 9.41122 21.655 8.71803 21.7247C8.02484 21.7943 7.47498 21.877 7.09982 21.968C6.72467 22.059 6.53159 22.1565 6.53159 22.255Z" fill="#45413C"/>
<path d="M4.87161 10.33C4.87161 12.8045 5.85459 15.1776 7.60431 16.9273C9.35402 18.677 11.7271 19.66 14.2016 19.66C16.6761 19.66 19.0492 18.677 20.7989 16.9273C22.5486 15.1776 23.5316 12.8045 23.5316 10.33C23.5316 7.85553 22.5486 5.48241 20.7989 3.73269C19.0492 1.98298 16.6761 1 14.2016 1C11.7271 1 9.35402 1.98298 7.60431 3.73269C5.85459 5.48241 4.87161 7.85553 4.87161 10.33V10.33Z" stroke="#45413C" stroke-width="0.5" stroke-linecap="round" stroke-linejoin="round"/>
<path d="M16.5366 14.055C15.8456 14.5149 15.0341 14.7602 14.2041 14.7602C13.3741 14.7602 12.5626 14.5149 11.8716 14.055" stroke="#45413C" stroke-width="0.5" stroke-linecap="round"/>
<path d="M20.9516 12.66C20.9516 13.05 20.4266 13.36 19.7866 13.36C19.1466 13.36 18.6166 13.05 18.6166 12.66C18.6166 12.27 19.1166 11.96 19.7866 11.96C20.4566 11.96 20.9516 12.275 20.9516 12.66Z" fill="#FFAA54"/>
<path d="M7.4516 12.66C7.4516 13.05 7.9516 13.36 8.6166 13.36C9.2816 13.36 9.7866 13.05 9.7866 12.66C9.7866 12.27 9.2616 11.96 8.6166 11.96C7.9716 11.96 7.4516 12.275 7.4516 12.66Z" fill="#FFAA54"/>
<path d="M20.8866 11.96H18.1716C17.5334 11.9615 16.9154 11.736 16.4281 11.3238C15.9408 10.9117 15.616 10.3397 15.5116 9.71003L15.1366 7.46503C15.1048 7.2734 15.1149 7.07716 15.1662 6.88981C15.2175 6.70246 15.3088 6.52845 15.4337 6.37973C15.5587 6.23101 15.7144 6.11113 15.8901 6.02832C16.0658 5.94551 16.2574 5.90175 16.4516 5.90003H22.4516C22.6416 5.89947 22.8296 5.93919 23.0032 6.01657C23.1768 6.09395 23.332 6.20724 23.4586 6.34897C23.5852 6.49069 23.6804 6.65764 23.7377 6.83881C23.7951 7.01998 23.8135 7.21125 23.7916 7.40003L23.5516 9.57003C23.4759 10.2251 23.1631 10.8299 22.6721 11.2702C22.1812 11.7105 21.546 11.9558 20.8866 11.96Z" fill="#656769"/>
<path d="M15.5116 9.71003C15.5733 10.0727 15.709 10.4188 15.9103 10.7268C16.1116 11.0347 16.3742 11.298 16.6816 11.5L22.2866 5.90003H16.4516C16.2561 5.89958 16.0628 5.94175 15.8853 6.02361C15.7078 6.10547 15.5502 6.22506 15.4236 6.37403C15.297 6.52301 15.2044 6.69779 15.1522 6.88621C15.1001 7.07463 15.0896 7.27216 15.1216 7.46503L15.5116 9.71003Z" fill="#87898C"/>
<path d="M20.8866 11.96H18.1716C17.5334 11.9615 16.9154 11.736 16.4281 11.3238C15.9408 10.9117 15.616 10.3397 15.5116 9.71003L15.1366 7.46503C15.1048 7.2734 15.1149 7.07716 15.1662 6.88981C15.2175 6.70246 15.3088 6.52845 15.4337 6.37973C15.5587 6.23101 15.7144 6.11113 15.8901 6.02832C16.0658 5.94551 16.2574 5.90175 16.4516 5.90003H22.4516C22.6416 5.89947 22.8296 5.93919 23.0032 6.01657C23.1768 6.09395 23.332 6.20724 23.4586 6.34897C23.5852 6.49069 23.6803 6.65764 23.7377 6.83881C23.7951 7.01998 23.8135 7.21125 23.7916 7.40003L23.5516 9.57003C23.4759 10.2251 23.1631 10.8299 22.6721 11.2702C22.1812 11.7105 21.546 11.9558 20.8866 11.96V11.96Z" stroke="#45413C" stroke-width="0.5" stroke-linecap="round" stroke-linejoin="round"/>
<path d="M7.5166 11.96H10.2316C10.8698 11.9615 11.4878 11.736 11.9751 11.3238C12.4623 10.9117 12.7872 10.3397 12.8916 9.71002L13.2666 7.46502C13.2984 7.2734 13.2883 7.07716 13.237 6.88981C13.1857 6.70246 13.0944 6.52844 12.9695 6.37972C12.8445 6.23101 12.6888 6.11112 12.5131 6.02832C12.3374 5.94551 12.1458 5.90174 11.9516 5.90002H5.9516C5.7618 5.90026 5.57418 5.94051 5.40098 6.01815C5.22779 6.09579 5.07291 6.20909 4.94646 6.35064C4.82001 6.49218 4.72483 6.6588 4.66713 6.83962C4.60943 7.02044 4.59051 7.2114 4.6116 7.40002L4.8566 9.57002C4.93011 10.2251 5.24161 10.8304 5.73197 11.271C6.22233 11.7116 6.85739 11.9568 7.5166 11.96Z" fill="#656769"/>
<path d="M4.8366 9.56503C4.88705 10.0021 5.04376 10.4202 5.29303 10.7828C5.5423 11.1454 5.87656 11.4414 6.2666 11.645L12.0066 5.90503H5.9516C5.7618 5.90526 5.57418 5.94551 5.40098 6.02316C5.22779 6.1008 5.07291 6.21409 4.94646 6.35564C4.82001 6.49719 4.72483 6.66381 4.66713 6.84463C4.60943 7.02545 4.59051 7.2164 4.6116 7.40503L4.8366 9.56503Z" fill="#87898C"/>
<path d="M7.5166 11.96H10.2316C10.8698 11.9615 11.4878 11.736 11.9751 11.3238C12.4623 10.9117 12.7872 10.3397 12.8916 9.71002L13.2666 7.46502C13.2984 7.2734 13.2883 7.07716 13.237 6.88981C13.1857 6.70246 13.0944 6.52844 12.9695 6.37972C12.8445 6.23101 12.6888 6.11112 12.5131 6.02832C12.3374 5.94551 12.1458 5.90174 11.9516 5.90002H5.9516C5.7618 5.90026 5.57418 5.94051 5.40098 6.01815C5.22779 6.09579 5.07291 6.20909 4.94646 6.35064C4.82001 6.49218 4.72483 6.6588 4.66713 6.83962C4.60943 7.02044 4.59051 7.2114 4.6116 7.40002L4.8566 9.57002C4.93011 10.2251 5.24161 10.8304 5.73197 11.271C6.22233 11.7116 6.85739 11.9568 7.5166 11.96V11.96Z" stroke="#45413C" stroke-width="0.5" stroke-linecap="round" stroke-linejoin="round"/>
<path d="M15.5916 6.23001C15.1604 6.01284 14.6844 5.89972 14.2016 5.89972C13.7188 5.89972 13.2428 6.01284 12.8116 6.23001" stroke="#45413C" stroke-width="0.5" stroke-linecap="round" stroke-linejoin="round"/>
</g>
<defs>
<clipPath id="clip0_226_17801">
<rect width="24" height="24" fill="white" transform="translate(0.951599)"/>
</clipPath>
</defs>
</svg>
