<svg width="28" height="28" viewBox="0 0 28 28" fill="none" xmlns="http://www.w3.org/2000/svg">
<path fill-rule="evenodd" clip-rule="evenodd" d="M21.3393 0.808353C10.7787 0.185044 6.13242 5.72807 6.84261 18.0926C6.96076 20.0354 6.98152 20.0365 5.99012 18.4395C4.86531 16.6266 1.44716 12.6844 1.12525 12.8534C0.265657 13.3248 0.941012 14.9871 2.98363 17.4976C4.92959 19.8778 6.60174 22.6794 7.2007 24.5872C8.24146 27.8733 9.32349 28.2473 9.89476 25.532C10.3511 23.3722 11.0967 21.9783 13.6379 18.6676C15.7067 15.9753 15.9083 15.3623 15.2993 13.9952C14.4685 12.1367 13.1655 13.0823 9.95684 17.8746C8.93194 19.4191 8.83766 19.2472 9.0318 15.8442C9.56807 6.44443 16.1282 2.38458 26.6433 4.89969C28.3063 5.30683 29.0156 1.26711 21.3393 0.808353Z" fill="white"/>
</svg>
