<svg width="100" height="60" viewBox="0 0 100 60" fill="none" xmlns="http://www.w3.org/2000/svg">
<g clip-path="url(#clip0_19_444)">
<path d="M94.6598 15.8911C89.3082 10.0701 79.5388 8.04529 72.4138 11.2805C64.8943 14.7001 58.5548 20.4633 55.4448 23.5952C54.8433 24.2023 54.855 25.1782 55.4722 25.7699C56.0894 26.3654 57.0777 26.3539 57.6831 25.7468C62.7183 20.6752 68.5661 16.4217 73.7261 14.0744C79.6792 11.3694 87.8551 13.0754 92.3431 17.955C96.3861 22.3505 97.9251 29.535 96.097 35.4258C93.5501 43.6135 83.675 49.0429 74.085 47.5291C63.694 45.8846 57.472 37.9696 50.882 29.594C46.8547 24.4724 42.6906 19.1737 37.495 15.5009C31.3192 11.1323 23.64 9.1881 16.944 10.3023C11.4948 11.2091 6.93598 14.0447 3.75598 18.4977C-0.50572 24.4724 -1.18542 32.045 1.93568 38.7581C5.13488 45.6356 11.7834 50.3695 19.2837 51.1141C20.1548 51.1987 21.0064 51.2409 21.8345 51.2409C32.4085 51.2409 39.7995 44.5516 45.1395 38.5544C45.7098 37.9166 45.6434 36.9445 44.9949 36.3836C44.3426 35.8226 43.3583 35.8879 42.7919 36.5257C34.8661 45.4281 27.9398 48.8818 19.6008 48.0526C13.1985 47.4186 7.51885 43.369 4.78085 37.4788C2.12465 31.7693 2.70275 25.3372 6.31995 20.2657C9.00745 16.4965 12.863 14.1028 17.468 13.3343C23.3547 12.3546 30.1629 14.0951 35.6749 17.995C40.4991 21.4107 44.3429 26.298 48.4129 31.4733C55.0809 39.9569 61.9789 48.7287 73.5929 50.5651C84.8549 52.3441 96.0499 46.0928 99.0889 36.3255C101.257 29.3441 99.4796 21.1337 94.6592 15.893L94.6598 15.8911Z" fill="#B378FF"/>
<path d="M15.4019 23.338C10.0386 24.8287 7.89802 28.6287 7.05032 31.5565C6.93313 31.9638 7.17141 32.3902 7.58938 32.5055C7.6597 32.5247 7.73391 32.5362 7.80422 32.5362C8.14406 32.5362 8.45656 32.3172 8.55422 31.9791C9.2925 29.4278 11.1558 26.1159 15.8276 24.8173C16.2417 24.702 16.4839 24.2755 16.3667 23.8683C16.2495 23.4571 15.812 23.2228 15.4018 23.338L15.4019 23.338Z" fill="#B378FF"/>
<path d="M84.3629 48.6845C84.4333 48.6845 84.5036 48.673 84.5778 48.6538C89.945 47.163 92.0817 43.3631 92.9294 40.4353C93.0466 40.028 92.8083 39.6015 92.3903 39.4862C91.9802 39.371 91.5427 39.6053 91.4255 40.0165C90.6872 42.5677 88.8239 45.8796 84.1521 47.1783C83.738 47.2936 83.4958 47.72 83.613 48.1273C83.7068 48.4616 84.0232 48.6844 84.363 48.6844L84.3629 48.6845Z" fill="#B378FF"/>
<path d="M20.3047 23.3065C20.3047 24.3324 18.7383 24.3324 18.7383 23.3065C18.7383 22.2806 20.3047 22.2806 20.3047 23.3065Z" fill="#B378FF"/>
<path d="M80.457 49.4528C80.457 50.4787 78.8945 50.4787 78.8945 49.4528C78.8945 48.4269 80.457 48.4269 80.457 49.4528Z" fill="#B378FF"/>
</g>
<defs>
<clipPath id="clip0_19_444">
<rect width="100" height="60" fill="white"/>
</clipPath>
</defs>
</svg>
