<svg width="296" height="118" viewBox="0 0 296 118" fill="none" xmlns="http://www.w3.org/2000/svg">
<path d="M31.3292 85.0371L30.3299 85.0001C31.3292 85.0371 31.3292 85.037 31.3292 85.0369L31.3292 85.0364L31.3293 85.0344L31.3296 85.0265L31.3307 84.9954L31.3352 84.8731L31.3523 84.4014C31.3671 83.9908 31.3883 83.3946 31.4141 82.6515C31.4657 81.1655 31.5356 79.092 31.6088 76.7422C31.7443 72.3919 31.8915 67.0885 31.9549 62.8119C37.1963 62.8771 42.8431 62.6744 47.2648 62.4489C49.6198 62.3288 51.6313 62.2021 53.0545 62.1053C53.7661 62.0569 54.3308 62.016 54.718 61.9872C54.9116 61.9728 55.0608 61.9614 55.1618 61.9536L55.2768 61.9446L55.3062 61.9423L55.3138 61.9417L55.3158 61.9415L55.3163 61.9415C55.3165 61.9415 55.3166 61.9415 55.2368 60.9446L55.3166 61.9415L56.2608 61.8659L56.2365 60.919L55.9172 48.4655L55.8916 47.4679L54.8939 47.4914L54.9175 48.4912L54.8938 47.4914L54.8934 47.4915L54.8917 47.4915L54.8847 47.4917L54.8561 47.4923L54.7422 47.4948C54.6416 47.4969 54.4923 47.4999 54.2984 47.5034C53.9105 47.5104 53.3443 47.5195 52.6324 47.5278C51.2083 47.5444 49.2018 47.5577 46.8737 47.5444C42.4801 47.5194 36.9585 47.3999 32.0475 47.0323C31.8523 40.4077 31.682 31.2939 32.0292 25.3971C32.3462 25.3377 32.7761 25.2786 33.3145 25.2214C34.4378 25.1021 35.9614 24.9984 37.7589 24.9089C41.3498 24.7301 45.977 24.6106 50.5576 24.5308C55.136 24.4511 59.6589 24.4112 63.0378 24.3913C64.7271 24.3813 66.13 24.3763 67.1105 24.3738C67.6008 24.3726 67.9854 24.3719 68.2474 24.3716L68.5462 24.3714L68.6226 24.3713L68.6419 24.3713L68.6467 24.3713H68.6479C68.6481 24.3713 68.6483 24.3713 68.6483 23.3713V24.3713H69.6819L69.6477 23.3383L69.222 10.459L69.19 9.49208H68.2225H17.3442H16.357L16.3443 10.4792L15.3863 84.9872L15.3733 86.0001H16.3862H30.3299H31.2935L31.3292 85.0371ZM126.739 85.4428L126.978 86.1112L127.687 86.1065L143.866 86.0001L145.42 85.9898L144.767 84.5797L110.493 10.6039L110.221 10.0156L109.572 10.0244L93.9258 10.2373L93.2922 10.2459L93.0294 10.8225C87.5471 22.8516 79.7229 40.1235 73.0693 54.9743C66.4333 69.7858 60.9208 82.2782 60.1029 84.6774L59.6618 85.9714L61.0286 85.9999C65.0782 86.0842 71.6035 86.0353 74.8289 86.0111C75.6829 86.0047 76.3056 86.0001 76.5897 86.0001H77.1961L77.4765 85.4623L86.3454 68.4462L86.8631 68.4556C87.5037 68.4673 88.4207 68.4839 89.5527 68.5038C91.8168 68.5438 94.941 68.597 98.4346 68.6502C105.263 68.7543 113.509 68.8585 119.501 68.8631C120.892 71.1544 122.518 74.7797 123.896 78.1172C125.339 81.6119 126.477 84.7098 126.739 85.4428ZM107.065 39.4983C109.003 43.9125 110.968 48.3889 113.072 52.6003H91.3084C93.0964 48.1429 94.8847 43.7716 96.6744 39.3966L96.6758 39.3932C98.2844 35.4191 99.9766 31.278 101.678 27.1939C103.261 30.7541 104.834 34.3669 106.327 37.8183L106.329 37.8241C106.574 38.3807 106.819 38.939 107.065 39.4983ZM222.128 46.9093L222.128 46.9019V46.8946C222.128 29.4883 207.907 9.27119 182.477 9.5986L182.473 9.59867C169.687 9.81724 159.089 15.6246 151.152 25.8447L151.152 25.845C140.553 39.503 140.334 58.5142 150.495 72.3912C160.456 86.0717 179.134 91.4082 195.182 85.513L195.188 85.5107C198.724 84.1845 201.915 82.2785 205.005 80.4326C205.553 80.1055 206.097 79.7803 206.64 79.4605C211.007 82.1185 215.523 84.2848 220.658 85.6473L221.454 85.8585L221.814 85.1177C222.722 83.2495 223.655 81.2755 224.586 79.3073C225.518 77.3372 226.447 75.3729 227.349 73.5157L227.768 72.6544L226.925 72.1991C225.617 71.4919 224.334 70.8962 223.133 70.3385C222.511 70.0498 221.911 69.7712 221.34 69.4927C219.858 68.7686 218.485 68.0048 217.166 66.9639C220.396 60.4803 222.023 54.0471 222.128 46.9093ZM197.46 52.5933L197.161 52.1745H196.646H196.646H196.645H196.645H196.644H196.643H196.643H196.642H196.642H196.641H196.64H196.64H196.639H196.638H196.638H196.637H196.637H196.636H196.635H196.635H196.634H196.633H196.633H196.632H196.632H196.631H196.63H196.63H196.629H196.628H196.628H196.627H196.627H196.626H196.625H196.625H196.624H196.623H196.623H196.622H196.622H196.621H196.62H196.62H196.619H196.618H196.618H196.617H196.617H196.616H196.615H196.615H196.614H196.614H196.613H196.612H196.612H196.611H196.61H196.61H196.609H196.609H196.608H196.607H196.607H196.606H196.606H196.605H196.604H196.604H196.603H196.603H196.602H196.601H196.601H196.6H196.599H196.599H196.598H196.598H196.597H196.596H196.596H196.595H196.595H196.594H196.593H196.593H196.592H196.592H196.591H196.59H196.59H196.589H196.589H196.588H196.587H196.587H196.586H196.586H196.585H196.584H196.584H196.583H196.583H196.582H196.581H196.581H196.58H196.58H196.579H196.578H196.578H196.577H196.577H196.576H196.575H196.575H196.574H196.574H196.573H196.572H196.572H196.571H196.571H196.57H196.57H196.569H196.568H196.568H196.567H196.567H196.566H196.565H196.565H196.564H196.564H196.563H196.563H196.562H196.561H196.561H196.56H196.56H196.559H196.558H196.558H196.557H196.557H196.556H196.556H196.555H196.554H196.554H196.553H196.553H196.552H196.552H196.551H196.551H196.55H196.549H196.549H196.548H196.548H196.547H196.547H196.546H196.545H196.545H196.544H196.544H196.543H196.543H196.542H196.542H196.541H196.541H196.54H196.539H196.539H196.538H196.538H196.537H196.537H196.536H196.536H196.535H196.535H196.534H196.533H196.533H196.532H196.532H196.531H196.531H196.53H196.53H196.529H196.529H196.528H196.528H196.527H196.527H196.526H196.525H196.525H196.524H196.524H196.523H196.523H196.522H196.522H196.521H196.521H196.52H196.52H196.519H196.519H196.518H196.518H196.517H196.517H196.516H196.516H196.515H196.515H196.514H196.514H196.513H196.513H196.512H196.512H196.511H196.511H196.51H196.51H196.509H196.509H196.508H196.508H196.507H196.507H196.506H196.506H196.505H196.505H196.504H196.504H196.503H196.503H196.503H196.502H196.502H196.501H196.501H196.5H196.5H196.499H196.499H196.498H196.498H196.497H196.497H196.496H196.496H196.496H196.495H196.495H196.494H196.494H196.493H196.493H196.492H196.492H196.491H196.491H196.491H196.49H196.49H196.489H196.489H196.488H196.488H196.488H196.487H196.487H196.486H196.486H196.485H196.485H196.485H196.484H196.484H196.483H196.483H196.482H196.482H196.482H196.481H196.481H196.48H196.48H196.48H196.479H196.479H196.478H196.478H196.478H196.477H196.477H196.476H196.476H196.476H196.475H196.475H196.474H196.474H196.474H196.473H196.473H196.473H196.472H196.472H196.471H196.471H196.471H196.47H196.47H196.47H196.469H196.469H196.468H196.468H196.468H196.467H196.467H196.467H196.466H196.466H196.466H196.465H196.465H196.465H196.464H196.464H196.464H196.463H196.463H196.463H196.462H196.462H196.462H196.461H196.461H196.461H196.46H196.46H196.46H196.459H196.459H196.459H196.458H196.458H196.458H196.457H196.457H196.457H196.457H196.456H196.456H196.456H196.455H196.455H196.455H196.454H196.454H196.454H196.454H196.453H196.453H196.453H196.452H196.452H196.452H196.452H196.451H196.451H196.451H196.451H196.45H196.45H196.45H196.45H196.449H196.449H196.449H196.449H196.448H196.448H196.448H196.448H196.447H196.447H196.447H196.447H196.446H196.446H196.446H196.446H196.445H196.445H196.445H196.445H196.445H196.444H196.444H196.444H196.444H196.444H196.443H196.443H196.443H196.443H196.443H196.442H196.442H196.442H196.442H196.442H196.441H196.441H196.441H196.441H196.441H196.44H196.44H196.44H196.44H196.44H196.44H196.439H196.439H196.439H196.439H196.439H196.439H196.439H196.438H196.438H196.438H196.438H196.438H196.438H196.438H196.437H196.437H196.437H196.437H196.437H196.437H196.437H196.436H196.436H196.436H196.436H196.436H196.435H196.435H196.435H196.435H196.435H196.435H196.434H196.434H196.434H196.434H196.434H196.434H196.434H196.083L195.809 52.3937C195.263 52.8308 193.068 54.6511 190.968 56.5104C189.918 57.4396 188.88 58.3894 188.079 59.1866C187.68 59.5839 187.327 59.9564 187.057 60.2776C186.923 60.4377 186.798 60.5982 186.696 60.7519C186.605 60.889 186.484 61.0898 186.421 61.3202L186.41 61.3619L186.402 61.4044C186.317 61.8721 186.483 62.3083 186.615 62.5864C186.765 62.9023 186.98 63.2336 187.222 63.5613C187.71 64.2207 188.395 64.9835 189.158 65.767C190.37 67.0116 191.838 68.3675 193.167 69.5425C188.681 72.2314 184.043 73.3811 178.891 72.7254L178.887 72.725C168.986 71.5002 161.244 64.4727 159.201 54.4647L159.201 54.4626C156.532 41.5287 163.506 29.1609 175.774 25.1739L175.777 25.173C188.487 21.0039 201.854 29.0271 204.716 42.3153L204.718 42.3217C205.881 47.5557 205.577 53.1239 203.324 58.1822C202.262 57.5199 201.092 56.5012 200.038 55.4576C198.705 54.1377 197.682 52.9043 197.46 52.5933ZM263.867 36.7141L263.816 36.6774L263.76 36.6474C260.975 35.1474 258.318 33.7115 256.082 31.6788L256.077 31.6738L256.071 31.6689C254.238 30.0514 253.208 28.7004 253.518 27.071L253.521 27.0535L253.524 27.0359C253.682 26.0109 254.309 25.2236 255.227 24.6416C256.157 24.0517 257.327 23.7173 258.374 23.6221L258.427 23.6173L258.463 23.6102C258.459 23.6109 258.458 23.6114 258.458 23.6117C258.458 23.6134 258.526 23.6082 258.709 23.6096C258.908 23.6111 259.174 23.6189 259.491 23.632C260.124 23.6582 260.93 23.7042 261.744 23.7572C263.409 23.8654 264.994 23.9956 265.251 24.0384L266.093 24.1789L266.242 23.7327H266.781L266.931 22.9123L269.166 10.6717L269.335 9.74934L268.425 9.52194L267.999 9.4155L267.96 9.40582L267.921 9.39925C267.9 9.39569 267.861 9.38845 267.804 9.37809C267.064 9.24162 263.388 8.56346 258.951 8.61402C254.222 8.66792 248.387 9.54847 244.332 13.0288C240.613 16.1394 238.367 19.9095 237.711 23.9981C237.056 28.0863 238.007 32.3935 240.502 36.5522L240.508 36.5618C242.264 39.4162 244.454 42.0402 247.281 44.649L247.283 44.6514C249.894 47.0444 253.024 48.783 255.839 50.347L255.988 50.4297L256.007 50.4403L256.027 50.45C256.921 50.897 257.747 51.3902 258.634 51.9197C258.974 52.1223 259.322 52.3302 259.687 52.5428C261.559 53.6877 263.35 54.9939 264.728 56.7639C267.164 59.9843 267.405 64.7378 265.639 67.5344C263.648 70.5609 259.406 72.2291 255.529 71.3594C253.466 70.8673 251.602 69.8878 249.922 68.3058L249.913 68.2981C248.705 67.1867 247.307 65.0728 246.174 63.1398C245.618 62.1915 245.143 61.3171 244.807 60.6797C244.639 60.3612 244.507 60.1027 244.416 59.9244C244.398 59.8882 244.381 59.8553 244.366 59.8259C244.345 59.783 244.327 59.7475 244.313 59.72L244.287 59.6679L244.281 59.6552L244.28 59.6523L244.279 59.6518L244.25 59.593L244.214 59.5384L244.001 59.2191L243.577 58.5836L242.853 58.8251L242.629 58.8997C242.582 58.9069 242.545 58.9141 242.527 58.9174C242.44 58.9334 242.33 58.9556 242.204 58.9824C241.951 59.0364 241.609 59.1138 241.201 59.2094C240.385 59.4008 239.293 59.6687 238.102 59.9764C235.739 60.5873 232.938 61.3669 231.132 62.0225L230.825 62.1248L230.141 62.3527V63.0734V63.3928V63.453L230.149 63.5128C230.766 68.6236 233.851 74.543 238.527 79.1775C243.215 83.8243 249.602 87.2774 256.9 87.2774H256.903H256.906H256.909H256.912H256.915H256.919H256.922H256.925H256.928H256.931H256.934H256.937H256.94H256.943H256.947H256.95H256.953H256.956H256.959H256.962H256.965H256.968H256.972H256.975H256.978H256.981H256.984H256.987H256.99H256.993H256.997H257H257.003H257.006H257.009H257.012H257.015H257.018H257.021H257.025H257.028H257.031H257.034H257.037H257.04H257.043H257.046H257.05H257.053H257.056H257.059H257.062H257.065H257.068H257.071H257.074H257.078H257.081H257.084H257.087H257.09H257.093H257.096H257.099H257.103H257.106H257.109H257.112H257.115H257.118H257.121H257.124H257.127H257.131H257.134H257.137H257.14H257.143H257.146H257.149H257.152H257.156H257.159H257.162H257.165H257.168H257.171H257.174H257.177H257.18H257.184H257.187H257.19H257.193H257.196H257.199H257.202H257.205H257.209H257.212H257.215H257.218H257.221H257.224H257.227H257.23H257.234H257.237H257.24H257.243H257.246H257.249H257.252H257.255H257.258H257.262H257.265H257.268H257.271H257.274H257.277H257.28H257.283H257.287H257.29H257.293H257.296H257.299H257.302H257.305H257.308H257.311H257.315H257.318H257.321H257.324H257.327H257.33H257.333H257.336H257.34H257.343H257.346H257.349H257.352H257.355H257.358H257.361H257.364H257.368H257.371H257.374H257.377H257.38H257.383H257.386H257.389H257.393H257.396H257.399H257.402H257.405H257.408H257.411H257.414H257.417H257.421H257.424H257.427H257.43H257.433H257.436H257.439H257.442H257.446H257.449H257.452H257.455H257.458H257.461H257.464H257.467H257.471H257.474H257.477H257.48H257.483H257.486H257.489H257.492H257.495H257.499H257.502H257.505H257.508H257.511H257.514H257.517H257.52H257.524H257.527H257.53H257.533H257.536H257.539H257.542H257.545H257.548H257.552H257.555H257.558H257.561H257.564H257.567H257.57H257.573H257.577H257.58H257.583H257.586H257.589H257.592H257.595H257.598H257.601H257.605H257.608H257.611H257.614H257.617H257.62H257.623H257.626H257.63H257.633H257.636H257.639H257.642H257.645H257.648H257.651H257.654H257.658H257.661H257.664H257.667H257.67H257.673H257.676H257.679H257.683H257.686H257.689H257.692H257.695H257.698H257.701H257.704H257.707H257.711H257.714H257.717H257.72H257.723H257.726H257.729H257.732H257.736H257.739H257.742H257.745H257.748H257.751H257.754H257.757H257.76H257.764H257.767H257.77H257.773H257.776H257.779H257.782H257.785H257.789H257.792H257.795H257.798H257.801H257.804H257.807H257.81H257.814H257.817H257.82H257.823H257.826H257.829H257.832H257.835H257.838H257.842H257.845H257.848H257.851H257.854H257.857H257.86H257.863H257.867H257.87H257.873H257.876H257.879H257.882H257.885H257.888H257.891H257.895H257.898H257.901H257.904H257.907H257.91H257.913H257.916H257.92H257.923H257.926H257.929H257.932H257.935H257.938H257.941H257.944H257.948H257.951H257.954H257.957H257.96H257.963H257.966H257.969H257.973H257.976H257.979H257.982H257.985H257.988H257.991H257.994H257.997H258.001H258.004H258.007H258.01H258.013H258.016H258.019H258.022H258.026H258.029H258.032H258.035H258.038H258.041H258.044H258.047H258.051H258.054H258.057H258.06H258.063H258.066H258.069H258.072H258.075H258.079H258.082H258.085H258.088H258.091H258.094H258.097H258.1H258.104H258.107H258.11H258.113H258.116H258.119H258.122H258.125H258.128H258.132H258.135H258.138H258.141H258.144H258.147H258.15H258.153H258.157H258.16H258.163H258.166H258.169H258.172H258.175H258.178H258.181H258.185H258.188H258.191H258.194H258.197H258.2H258.203H258.206H258.21H258.213H258.216H258.219H258.222H258.225H258.228H258.231H258.234H258.238H258.241H258.244H258.247H258.25H258.253H258.256H258.259H258.263H258.266H258.269H258.272H258.275H258.278H258.281H258.284H258.288H258.291H258.294H258.297H258.3H258.303H258.306H258.309H258.312H258.316H258.319H258.322H258.325H258.328H258.331H258.334H258.337H258.341H258.344H258.347H258.35H258.353H258.356H258.359H258.362H258.365H258.369H258.372H258.375H258.378H258.381H258.384H258.387H258.39H258.394H258.397H258.4H258.403H258.406H258.409H258.412H258.415H258.418H258.422H258.425H258.428H258.431H258.434H258.437H258.44H258.443H258.447H258.45H258.453H258.456H258.459H258.462H258.465H258.468H258.471H258.475H258.478H258.481H258.484H258.487H258.49H258.493H258.496H258.53L258.564 87.275C268.228 86.6162 275.666 82.3076 280.426 74.4506C286.349 64.7276 283.853 51.8535 274.589 43.9073C271.432 41.0787 267.757 38.916 264.56 37.2085L263.867 36.7141Z" fill="url(#paint0_linear_62_208)" stroke="black" stroke-width="2"/>
<defs>
<linearGradient id="paint0_linear_62_208" x1="51.1131" y1="18.0243" x2="96.2671" y2="132.651" gradientUnits="userSpaceOnUse">
<stop stop-color="#57FFAE"/>
<stop offset="0.526936" stop-color="#E02FFD"/>
<stop offset="1" stop-color="#FDC32F"/>
</linearGradient>
</defs>
</svg>
