<svg width="25" height="24" viewBox="0 0 25 24" fill="none" xmlns="http://www.w3.org/2000/svg">
<path opacity="0.15" d="M4.15662 20.05C4.15662 20.1676 4.38773 20.2839 4.83675 20.3925C5.28578 20.5011 5.94393 20.5998 6.77362 20.6829C7.60331 20.766 8.5883 20.8319 9.67234 20.8769C10.7564 20.9219 11.9183 20.945 13.0916 20.945C14.265 20.945 15.4268 20.9219 16.5109 20.8769C17.5949 20.8319 18.5799 20.766 19.4096 20.6829C20.2393 20.5998 20.8975 20.5011 21.3465 20.3925C21.7955 20.2839 22.0266 20.1676 22.0266 20.05C22.0266 19.9325 21.7955 19.8161 21.3465 19.7075C20.8975 19.5989 20.2393 19.5003 19.4096 19.4172C18.5799 19.3341 17.5949 19.2681 16.5109 19.2232C15.4268 19.1782 14.265 19.155 13.0916 19.155C11.9183 19.155 10.7564 19.1782 9.67234 19.2232C8.5883 19.2681 7.60331 19.3341 6.77362 19.4172C5.94393 19.5003 5.28578 19.5989 4.83675 19.7075C4.38773 19.8161 4.15662 19.9325 4.15662 20.05Z" fill="#45413C"/>
<path d="M2.36661 9.305C2.36661 10.9613 2.83755 12.5497 3.67584 13.7209C4.51413 14.892 5.65109 15.55 6.83661 15.55C8.02213 15.55 9.15909 14.892 9.99738 13.7209C10.8357 12.5497 11.3066 10.9613 11.3066 9.305C11.3066 7.64872 10.8357 6.06028 9.99738 4.88912C9.15909 3.71795 8.02213 3.06 6.83661 3.06C5.65109 3.06 4.51413 3.71795 3.67584 4.88912C2.83755 6.06028 2.36661 7.64872 2.36661 9.305Z" fill="white"/>
<path d="M6.83661 4.425C9.20161 4.425 11.1316 6.765 11.2916 9.73C11.2916 9.585 11.2916 9.45 11.2916 9.305C11.2916 5.855 9.29161 3.06 6.82161 3.06C4.35161 3.06 2.36661 5.855 2.36661 9.305C2.36661 9.45 2.36661 9.585 2.36661 9.73C2.54161 6.765 4.45161 4.425 6.83661 4.425Z" fill="#E0E0E0"/>
<path d="M2.36661 9.305C2.36661 10.9613 2.83755 12.5497 3.67584 13.7209C4.51413 14.892 5.65109 15.55 6.83661 15.55C8.02213 15.55 9.15909 14.892 9.99738 13.7209C10.8357 12.5497 11.3066 10.9613 11.3066 9.305C11.3066 7.64872 10.8357 6.06028 9.99738 4.88912C9.15909 3.71795 8.02213 3.06 6.83661 3.06C5.65109 3.06 4.51413 3.71795 3.67584 4.88912C2.83755 6.06028 2.36661 7.64872 2.36661 9.305V9.305Z" stroke="#45413C" stroke-width="0.5" stroke-linecap="round" stroke-linejoin="round"/>
<path d="M2.36661 9.395C2.36661 10.1787 2.67794 10.9303 3.23211 11.4845C3.78628 12.0387 4.53789 12.35 5.32161 12.35C6.10532 12.35 6.85694 12.0387 7.41111 11.4845C7.96528 10.9303 8.27661 10.1787 8.27661 9.395C8.27661 8.61129 7.96528 7.85967 7.41111 7.3055C6.85694 6.75133 6.10532 6.44 5.32161 6.44C4.53789 6.44 3.78628 6.75133 3.23211 7.3055C2.67794 7.85967 2.36661 8.61129 2.36661 9.395Z" fill="#656769"/>
<path d="M5.32162 11.11C4.6489 11.1056 3.9978 10.8718 3.47596 10.4473C2.95411 10.0227 2.59276 9.43279 2.45162 8.77502C2.40559 8.97849 2.38211 9.18641 2.38162 9.39503C2.38162 10.1787 2.69295 10.9304 3.24712 11.4845C3.80129 12.0387 4.55291 12.35 5.33662 12.35C6.12034 12.35 6.87195 12.0387 7.42612 11.4845C7.98029 10.9304 8.29162 10.1787 8.29162 9.39503C8.29113 9.18641 8.26766 8.97849 8.22162 8.77502C8.08026 9.43825 7.71471 10.0325 7.18652 10.4578C6.65833 10.8831 5.99974 11.1134 5.32162 11.11Z" fill="#525252"/>
<path d="M2.36661 9.395C2.36661 10.1787 2.67794 10.9303 3.23211 11.4845C3.78628 12.0387 4.53789 12.35 5.32161 12.35C6.10532 12.35 6.85694 12.0387 7.41111 11.4845C7.96528 10.9303 8.27661 10.1787 8.27661 9.395C8.27661 8.61129 7.96528 7.85967 7.41111 7.3055C6.85694 6.75133 6.10532 6.44 5.32161 6.44C4.53789 6.44 3.78628 6.75133 3.23211 7.3055C2.67794 7.85967 2.36661 8.61129 2.36661 9.395V9.395Z" stroke="#45413C" stroke-width="0.5" stroke-linecap="round" stroke-linejoin="round"/>
<path d="M4.55161 7.45998C4.55161 7.57137 4.63273 7.6782 4.77713 7.75696C4.92154 7.83573 5.11739 7.87998 5.32161 7.87998C5.52582 7.87998 5.72167 7.83573 5.86608 7.75696C6.01048 7.6782 6.09161 7.57137 6.09161 7.45998C6.09161 7.34859 6.01048 7.24176 5.86608 7.16299C5.72167 7.08423 5.52582 7.03998 5.32161 7.03998C5.11739 7.03998 4.92154 7.08423 4.77713 7.16299C4.63273 7.24176 4.55161 7.34859 4.55161 7.45998Z" fill="#87898C"/>
<path d="M14.5966 9.305C14.5966 10.9613 15.0676 12.5497 15.9059 13.7209C16.7441 14.892 17.8811 15.55 19.0666 15.55C20.2521 15.55 21.3891 14.892 22.2274 13.7209C23.0657 12.5497 23.5366 10.9613 23.5366 9.305C23.5366 7.64872 23.0657 6.06028 22.2274 4.88912C21.3891 3.71795 20.2521 3.06 19.0666 3.06C17.8811 3.06 16.7441 3.71795 15.9059 4.88912C15.0676 6.06028 14.5966 7.64872 14.5966 9.305Z" fill="white"/>
<path d="M19.0666 4.425C21.4316 4.425 23.3616 6.765 23.5216 9.73C23.5216 9.585 23.5216 9.45 23.5216 9.305C23.5216 5.855 21.5216 3.06 19.0516 3.06C16.5816 3.06 14.5816 5.855 14.5816 9.305C14.5816 9.45 14.5816 9.585 14.5816 9.73C14.7716 6.765 16.7016 4.425 19.0666 4.425Z" fill="#E0E0E0"/>
<path d="M14.5966 9.305C14.5966 10.9613 15.0676 12.5497 15.9059 13.7209C16.7441 14.892 17.8811 15.55 19.0666 15.55C20.2521 15.55 21.3891 14.892 22.2274 13.7209C23.0657 12.5497 23.5366 10.9613 23.5366 9.305C23.5366 7.64872 23.0657 6.06028 22.2274 4.88912C21.3891 3.71795 20.2521 3.06 19.0666 3.06C17.8811 3.06 16.7441 3.71795 15.9059 4.88912C15.0676 6.06028 14.5966 7.64872 14.5966 9.305V9.305Z" stroke="#45413C" stroke-width="0.5" stroke-linecap="round" stroke-linejoin="round"/>
<path d="M14.5966 9.395C14.5966 10.1787 14.9079 10.9303 15.4621 11.4845C16.0163 12.0387 16.7679 12.35 17.5516 12.35C18.3353 12.35 19.0869 12.0387 19.6411 11.4845C20.1953 10.9303 20.5066 10.1787 20.5066 9.395C20.5066 8.61129 20.1953 7.85967 19.6411 7.3055C19.0869 6.75133 18.3353 6.44 17.5516 6.44C16.7679 6.44 16.0163 6.75133 15.4621 7.3055C14.9079 7.85967 14.5966 8.61129 14.5966 9.395Z" fill="#656769"/>
<path d="M17.5516 11.11C16.8761 11.11 16.221 10.8781 15.6959 10.4531C15.1708 10.0281 14.8075 9.43573 14.6666 8.77502C14.6206 8.97849 14.5971 9.18641 14.5966 9.39503C14.5966 9.78308 14.6731 10.1673 14.8216 10.5259C14.9701 10.8844 15.1877 11.2101 15.4621 11.4845C15.7365 11.7589 16.0623 11.9766 16.4208 12.1251C16.7793 12.2736 17.1636 12.35 17.5516 12.35C17.9397 12.35 18.3239 12.2736 18.6824 12.1251C19.041 11.9766 19.3667 11.7589 19.6411 11.4845C19.9155 11.2101 20.1332 10.8844 20.2817 10.5259C20.4302 10.1673 20.5066 9.78308 20.5066 9.39503C20.5111 9.18697 20.4926 8.97905 20.4516 8.77502C20.3103 9.43825 19.9447 10.0325 19.4165 10.4578C18.8883 10.8831 18.2297 11.1134 17.5516 11.11Z" fill="#525252"/>
<path d="M14.5966 9.395C14.5966 10.1787 14.9079 10.9303 15.4621 11.4845C16.0163 12.0387 16.7679 12.35 17.5516 12.35C18.3353 12.35 19.0869 12.0387 19.6411 11.4845C20.1953 10.9303 20.5066 10.1787 20.5066 9.395C20.5066 8.61129 20.1953 7.85967 19.6411 7.3055C19.0869 6.75133 18.3353 6.44 17.5516 6.44C16.7679 6.44 16.0163 6.75133 15.4621 7.3055C14.9079 7.85967 14.5966 8.61129 14.5966 9.395V9.395Z" stroke="#45413C" stroke-width="0.5" stroke-linecap="round" stroke-linejoin="round"/>
<path d="M16.7816 7.45998C16.7816 7.57137 16.8627 7.6782 17.0071 7.75696C17.1515 7.83573 17.3474 7.87998 17.5516 7.87998C17.7558 7.87998 17.9517 7.83573 18.0961 7.75696C18.2405 7.6782 18.3216 7.57137 18.3216 7.45998C18.3216 7.34859 18.2405 7.24176 18.0961 7.16299C17.9517 7.08423 17.7558 7.03998 17.5516 7.03998C17.3474 7.03998 17.1515 7.08423 17.0071 7.16299C16.8627 7.24176 16.7816 7.34859 16.7816 7.45998Z" fill="#87898C"/>
</svg>
