<svg width="24" height="22" viewBox="0 0 24 22" fill="none" xmlns="http://www.w3.org/2000/svg">
<path d="M20.9503 2.0191C19.9385 1.24489 18.6673 0.8905 17.4009 1.02962C16.1345 1.16875 14.9705 1.79068 14.1509 2.76608L12.1781 4.95913L10.2053 2.76608C9.38576 1.79068 8.22174 1.16875 6.95536 1.02962C5.68897 0.8905 4.41769 1.24489 3.40592 2.0191C2.63463 2.62108 2.01535 3.39563 1.59787 4.28049C1.18039 5.16535 0.976361 6.13582 1.00218 7.11387C0.989351 8.21694 1.20381 9.31083 1.63218 10.3274C2.06056 11.344 2.69368 12.2614 3.4921 13.0227L12.1781 21L20.8641 12.9939C21.659 12.236 22.2901 11.3232 22.7183 10.3119C23.1466 9.30053 23.3629 8.21212 23.3541 7.11387C23.3799 6.13582 23.1758 5.16535 22.7584 4.28049C22.3409 3.39563 21.7216 2.62108 20.9503 2.0191Z" fill="#FF6196"/>
<path d="M3.40591 7.65974C4.41769 6.88553 5.68897 6.53114 6.95536 6.67027C8.22174 6.80939 9.38576 7.43132 10.2053 8.40672L11.3545 9.68041C11.4587 9.79546 11.5858 9.88742 11.7276 9.95035C11.8695 10.0133 12.0229 10.0458 12.1781 10.0458C12.3333 10.0458 12.4868 10.0133 12.6286 9.95035C12.7705 9.88742 12.8976 9.79546 13.0017 9.68041L14.1509 8.40672C14.9705 7.43132 16.1345 6.80939 17.4009 6.67027C18.6673 6.53114 19.9385 6.88553 20.9503 7.65974C21.7938 8.26958 22.4558 9.0971 22.8656 10.0539C23.1995 9.11008 23.3648 8.11493 23.3541 7.11387C23.3754 6.14062 23.1691 5.17583 22.7518 4.29633C22.3345 3.41683 21.7176 2.64689 20.9503 2.04783C19.9385 1.27362 18.6673 0.91923 17.4009 1.05835C16.1345 1.19748 14.9705 1.81941 14.1509 2.79481L12.1781 4.95913L10.2053 2.76608C9.38576 1.79068 8.22174 1.16875 6.95536 1.02962C5.68897 0.8905 4.41769 1.24489 3.40591 2.0191C2.63463 2.62108 2.01535 3.39563 1.59787 4.28049C1.18039 5.16535 0.976361 6.13582 1.00218 7.11387C1.0034 8.12744 1.185 9.1327 1.53847 10.0826C1.93058 9.12109 2.57594 8.28379 3.40591 7.65974Z" fill="#FF87AF"/>
<path d="M20.9503 2.0191C19.9385 1.24489 18.6673 0.8905 17.4009 1.02962C16.1345 1.16875 14.9705 1.79068 14.1509 2.76608L12.1781 4.95913L10.2053 2.76608C9.38576 1.79068 8.22174 1.16875 6.95536 1.02962C5.68897 0.8905 4.41769 1.24489 3.40591 2.0191C2.63463 2.62108 2.01535 3.39563 1.59787 4.28049C1.18039 5.16535 0.976361 6.13582 1.00218 7.11387C0.989351 8.21694 1.20381 9.31083 1.63218 10.3274C2.06056 11.344 2.69368 12.2614 3.4921 13.0227L12.1781 21L20.8641 12.9939C21.659 12.236 22.2901 11.3232 22.7183 10.3119C23.1466 9.30053 23.3629 8.21212 23.3541 7.11387C23.3799 6.13582 23.1758 5.16535 22.7584 4.28049C22.3409 3.39563 21.7216 2.62108 20.9503 2.0191V2.0191Z" stroke="black" stroke-width="0.957664" stroke-linecap="round" stroke-linejoin="round"/>
</svg>
