<svg width="66" height="66" viewBox="0 0 66 66" fill="none" xmlns="http://www.w3.org/2000/svg">
<path d="M39.6455 10.7876C40.8168 8.40587 39.2941 6.68795 37.6738 8.58159C36.4829 9.98717 34.8041 13.9892 35.0969 14.7505C35.7802 16.488 37.6543 14.8481 39.6455 10.7876Z" fill="#FFDC5F"/>
<path d="M27.991 15.5896C29.2209 15.9801 29.6504 15.2577 29.5138 13.0322C29.2209 8.63978 27.8739 6.82424 25.5703 7.74178C24.4771 8.17126 26.6245 15.1601 27.991 15.5896Z" fill="#FFDC5F"/>
<path d="M15.6728 16.7224C18.4449 18.7918 20.3775 19.7093 21.3536 19.3579C22.564 18.9284 22.3688 18.5185 20.1628 16.781C17.3517 14.536 15.8094 13.8722 14.3257 14.2627C13.2715 14.536 13.6035 15.1607 15.6728 16.7224Z" fill="#FFDC5F"/>
<path d="M39.6257 17.4641C38.962 18.1864 38.962 18.2059 39.4696 18.5768C40.9142 19.631 42.4565 18.7916 48.5668 13.5792C50.2067 12.1736 47.4931 11.0609 45.5799 12.3688C44.5843 13.0521 40.4066 16.6246 39.6257 17.4641Z" fill="#FFDC5F"/>
<path d="M62.8572 52.6426C62.174 52.0764 61.725 51.0223 61.5298 49.5191C61.3931 48.4844 59.2067 31.3831 58.211 26.8736C57.3911 23.1253 55.0875 21.3488 53.2525 21.2512C52.1007 21.1927 51.4369 21.954 50.9684 21.6612C49.6994 20.8608 49.348 20.4899 48.0986 20.607C47.5129 20.646 46.205 20.9974 45.7559 21.3879C45.4631 21.6221 45.0923 21.6221 44.2724 21.4074C40.2508 20.3337 38.4742 24.16 40.2898 29.9971C41.3245 33.3353 42.8082 31.8712 42.3787 27.9473C41.8125 22.7544 41.9297 22.2078 43.55 22.7935C44.4285 23.1058 44.4675 23.1839 44.3894 24.2576C44.2723 25.7608 45.3265 32.6326 45.717 32.8863C46.7907 33.5891 47.6106 32.3397 47.2592 30.4851C46.3026 25.2923 46.9469 22.0712 48.86 22.5592C49.4457 22.7154 49.8751 23.2425 49.8751 23.8476C49.9727 29.7238 50.0313 33.6477 51.8273 33.6477C52.9596 33.6477 52.9596 33.6867 52.7058 28.5915C52.4325 23.1839 53.0768 22.8911 54.0334 23.1839C55.4194 23.6134 55.5561 26.854 55.6927 27.7325C55.6927 27.7521 58.7772 48.0159 58.7772 48.0549C59.1481 52.6621 62.0178 56.7032 64.0286 55.4147C64.4385 55.1414 63.6772 53.3259 62.8572 52.6426Z" fill="#FFDC5F"/>
<path d="M14.6377 28.0448C14.6377 24.9017 14.6767 24.6479 15.3014 23.9451C16.4142 22.6372 16.7656 23.828 16.9804 29.8408C17.1365 34.2332 17.1561 34.2918 18.0931 34.5651C19.3035 34.936 19.4207 34.3699 19.284 29.4113C19.1474 24.9408 19.1669 24.7846 19.7525 24.1989C20.9629 22.969 21.2167 23.4571 21.7243 27.6934C22.0171 30.2703 21.978 31.7149 21.568 33.9404C21.4704 34.5065 21.568 34.6822 22.0365 34.8189C23.3055 35.1508 23.5202 34.7213 23.8911 31.0121C24.5353 24.5894 23.6569 22.6567 20.0258 22.6177C18.9521 22.5981 17.7222 22.4615 17.2927 22.2662C16.8632 22.0905 15.8871 21.9539 15.1258 21.9734C14.3644 21.9929 13.115 21.9344 12.3731 21.8368C11.4751 21.7196 10.7334 21.7977 10.2063 22.032C7.96125 23.0667 7.57081 24.277 4.93534 38.5085C4.48634 40.9683 3.97875 44.0333 3.84209 45.3022C3.56879 47.6644 2.74882 50.417 1.65559 52.6815C0.894234 54.2433 1.06997 54.8094 2.28033 54.8094C4.44727 54.8094 6.47756 51.2954 6.96561 46.6687C7.2194 44.209 7.66842 43.1938 8.4493 37.5715C9.93297 26.7368 10.2062 25.4874 11.2994 24.2184C12.8026 22.481 12.666 23.0471 12.8612 33.1595C12.8612 33.589 13.2517 33.9209 13.6812 33.8818C14.462 33.8233 14.6377 33.1009 14.6377 28.0448Z" fill="#FFDC5F"/>
<path d="M51.0464 54.9657C49.8165 52.7011 49.7189 52.623 47.5325 52.3888C44.8775 52.0959 42.8276 51.0613 41.9491 49.5776C40.0165 46.2784 37.303 37.513 37.6153 35.5803C38.0448 32.8668 38.9428 33.062 40.4069 36.1464C41.5587 38.5672 42.3201 39.4262 45.0337 41.4564C46.244 42.3545 46.9859 43.1549 47.4739 44.1114C48.0791 45.2828 48.2938 45.478 48.9966 45.478C51.3978 45.478 48.5281 40.2656 45.5998 39.3285C44.3504 38.9381 43.96 38.6062 43.96 37.962C43.96 34.7409 39.2552 31.2464 36.7564 32.613C34.609 33.8038 34.4332 35.5998 35.9169 41.0074C38.7671 51.3736 40.3679 53.482 45.7169 53.9505C47.8058 54.1457 48.3133 54.4971 49.3675 56.4688C50.8121 59.1824 52.4715 57.3278 52.1397 56.8983C52.0225 56.7226 51.5345 55.8637 51.0464 54.9657Z" fill="#FFDC5F"/>
<path d="M25.1018 33.882C23.6766 34.5457 22.1344 36.1856 21.4706 37.7473C20.9826 38.8991 20.846 39.0163 19.7527 39.192C17.3711 39.5629 15.3018 41.3394 14.9894 43.233C14.7161 44.9119 16.434 45.7709 17.0587 44.2482C17.8786 42.2764 19.4989 40.7537 21.2754 40.3047C22.3687 40.0314 24.5552 37.845 26.4098 35.229C27.5811 33.5696 28.3619 35.8147 27.542 38.4306C24.9651 46.5127 21.6268 50.9637 17.781 51.3932C16.1607 51.5884 15.8092 51.9203 14.4232 54.6729C13.5057 56.4689 13.4862 56.5665 13.9742 56.9179C15.1455 57.7769 16.2583 56.957 17.0197 54.6924C17.5468 53.1307 17.6053 53.0526 18.7962 52.7597C23.2862 51.6079 25.5117 48.953 28.7329 40.9685C31.1926 34.8776 29.6113 31.7931 25.1018 33.882Z" fill="#FFDC5F"/>
</svg>
