<svg width="25" height="24" viewBox="0 0 25 24" fill="none" xmlns="http://www.w3.org/2000/svg">
<path opacity="0.15" d="M7.4516 22.75C7.4516 22.9489 8.03106 23.1397 9.06251 23.2803C10.094 23.421 11.4929 23.5 12.9516 23.5C14.4103 23.5 15.8092 23.421 16.8407 23.2803C17.8721 23.1397 18.4516 22.9489 18.4516 22.75C18.4516 22.5511 17.8721 22.3603 16.8407 22.2197C15.8092 22.079 14.4103 22 12.9516 22C11.4929 22 10.094 22.079 9.06251 22.2197C8.03106 22.3603 7.4516 22.5511 7.4516 22.75Z" fill="#45413C"/>
<path d="M15.9516 11.04L16.9166 4.49999C16.9624 4.16847 17.1379 3.8687 17.4047 3.66663C17.5368 3.56658 17.6873 3.49352 17.8476 3.45163C18.008 3.40974 18.175 3.39984 18.3391 3.42249C18.5033 3.44514 18.6613 3.49991 18.8043 3.58365C18.9473 3.6674 19.0724 3.77849 19.1725 3.91058C19.2725 4.04267 19.3456 4.19318 19.3875 4.35351C19.4294 4.51383 19.4393 4.68084 19.4166 4.84499C18.2866 13.125 18.2966 11.58 18.2966 16C18.298 16.684 18.159 17.361 17.8882 17.9891C17.6175 18.6172 17.2208 19.1831 16.7226 19.6517C16.2244 20.1204 15.6354 20.4818 14.9919 20.7138C14.3484 20.9457 13.6642 21.0431 12.9816 21C11.6998 20.8878 10.5077 20.2952 9.64437 19.3411C8.78107 18.3869 8.31036 17.1416 8.32661 15.855V12.27C8.32836 11.65 8.23044 11.0339 8.03661 10.445L6.95161 7.13499C6.84818 6.85055 6.86198 6.53666 6.98997 6.26239C7.11796 5.98812 7.34967 5.77593 7.63411 5.67249C7.91856 5.56906 8.23244 5.58285 8.50671 5.71085C8.78099 5.83884 8.99318 6.07055 9.09661 6.35499L10.9866 11.04H15.9516Z" fill="#FFE500"/>
<path d="M17.9516 4.785C18.2314 4.78461 18.5052 4.86574 18.7397 5.01847C18.9741 5.1712 19.1589 5.38891 19.2716 5.645C19.3066 5.39 19.3416 5.145 19.3766 4.845C19.4224 4.51348 19.3345 4.17736 19.1325 3.91059C18.9304 3.64382 18.6306 3.46825 18.2991 3.4225C17.9676 3.37675 17.6315 3.46457 17.3647 3.66664C17.0979 3.86871 16.9224 4.16848 16.8766 4.5L16.7466 5.405C16.8805 5.21007 17.0607 5.0514 17.271 4.94319C17.4813 4.83499 17.7152 4.78064 17.9516 4.785Z" fill="#FFF48C"/>
<path d="M7.25661 8.04997C7.25621 7.78522 7.34158 7.52746 7.49995 7.3153C7.65833 7.10314 7.88117 6.948 8.13511 6.87311C8.38905 6.79822 8.66042 6.80762 8.90857 6.8999C9.15672 6.99217 9.3683 7.16236 9.51161 7.38497L9.09661 6.35497C8.99318 6.07052 8.78099 5.83882 8.50671 5.71082C8.23244 5.58283 7.91856 5.56903 7.63411 5.67247C7.34967 5.7759 7.11796 5.9881 6.98997 6.26237C6.86198 6.53664 6.84818 6.85052 6.95161 7.13497L7.25661 8.06497V8.04997Z" fill="#FFF48C"/>
<path d="M15.9516 11.04L16.9166 4.49999C16.9624 4.16847 17.1379 3.8687 17.4047 3.66663C17.5368 3.56658 17.6873 3.49352 17.8476 3.45163C18.008 3.40974 18.175 3.39984 18.3391 3.42249C18.5033 3.44514 18.6613 3.49991 18.8043 3.58365C18.9473 3.6674 19.0724 3.77849 19.1725 3.91058C19.2725 4.04267 19.3456 4.19318 19.3875 4.35351C19.4294 4.51383 19.4393 4.68084 19.4166 4.84499C18.2866 13.125 18.2966 11.58 18.2966 16C18.298 16.684 18.159 17.361 17.8882 17.9891C17.6175 18.6172 17.2208 19.1831 16.7226 19.6517C16.2244 20.1204 15.6354 20.4818 14.9919 20.7138C14.3484 20.9457 13.6642 21.0431 12.9816 21C11.6998 20.8878 10.5077 20.2952 9.64437 19.3411C8.78107 18.3869 8.31036 17.1416 8.32661 15.855V12.27C8.32836 11.65 8.23044 11.0339 8.03661 10.445L6.95161 7.13499C6.84818 6.85055 6.86198 6.53666 6.98997 6.26239C7.11796 5.98812 7.34967 5.77593 7.63411 5.67249C7.91856 5.56906 8.23244 5.58285 8.50671 5.71085C8.78099 5.83884 8.99318 6.07055 9.09661 6.35499L10.9866 11.04H15.9516Z" stroke="#45413C" stroke-width="0.5" stroke-linecap="round" stroke-linejoin="round"/>
<path d="M10.9866 9.71497H13.6466V15.195H10.9866V9.71497Z" fill="#FFE500"/>
<path d="M12.3166 9.71497C11.9647 9.71496 11.6272 9.8544 11.3779 10.1027C11.1286 10.3511 10.9879 10.6881 10.9866 11.04V12.24C10.9879 11.8881 11.1286 11.5511 11.3779 11.3027C11.6272 11.0544 11.9647 10.915 12.3166 10.915C12.6685 10.915 13.006 11.0544 13.2553 11.3027C13.5046 11.5511 13.6453 11.8881 13.6466 12.24V11.04C13.6453 10.6881 13.5046 10.3511 13.2553 10.1027C13.006 9.8544 12.6685 9.71496 12.3166 9.71497Z" fill="#FFF48C"/>
<path d="M10.9866 9.71497H13.6466V15.195H10.9866V9.71497Z" stroke="#45413C" stroke-width="0.5" stroke-linecap="round" stroke-linejoin="round"/>
<path d="M13.6466 9.71497H16.3066V15.195H13.6466V9.71497Z" fill="#FFE500"/>
<path d="M14.9516 9.71497C14.6002 9.71497 14.2632 9.85456 14.0147 10.103C13.7662 10.3515 13.6266 10.6886 13.6266 11.04V12.24C13.6266 11.8886 13.7662 11.5515 14.0147 11.303C14.2632 11.0546 14.6002 10.915 14.9516 10.915C15.3035 10.915 15.641 11.0544 15.8903 11.3027C16.1396 11.5511 16.2803 11.8881 16.2816 12.24V11.04C16.2803 10.6881 16.1396 10.3511 15.8903 10.1027C15.641 9.8544 15.3035 9.71496 14.9516 9.71497Z" fill="#FFF48C"/>
<path d="M13.6466 9.71497H16.3066V15.195H13.6466V9.71497Z" stroke="#45413C" stroke-width="0.5" stroke-linecap="round" stroke-linejoin="round"/>
<path d="M18.2966 15.875C18.2966 15.5344 18.2295 15.1972 18.099 14.8827C17.9685 14.5681 17.7773 14.2824 17.5363 14.0418C17.2952 13.8012 17.0091 13.6106 16.6943 13.4807C16.3795 13.3508 16.0422 13.2843 15.7016 13.285H11.6666C11.5762 13.2843 11.4866 13.3016 11.403 13.3357C11.3193 13.3698 11.2432 13.4202 11.179 13.4838C11.1149 13.5475 11.064 13.6233 11.0292 13.7067C10.9945 13.7901 10.9766 13.8796 10.9766 13.97C10.9766 14.4752 11.1773 14.9598 11.5346 15.317C11.8918 15.6743 12.3764 15.875 12.8816 15.875H18.2966Z" fill="#FFE500"/>
<path d="M18.2966 15.875C18.2966 15.5344 18.2295 15.1972 18.099 14.8827C17.9685 14.5681 17.7773 14.2824 17.5363 14.0418C17.2952 13.8012 17.0091 13.6106 16.6943 13.4807C16.3795 13.3508 16.0422 13.2843 15.7016 13.285H11.6666C11.5762 13.2843 11.4866 13.3016 11.403 13.3357C11.3193 13.3698 11.2432 13.4202 11.179 13.4838C11.1149 13.5475 11.064 13.6233 11.0292 13.7067C10.9945 13.7901 10.9766 13.8796 10.9766 13.97C10.9774 14.1921 11.018 14.4123 11.0966 14.62C11.1615 14.5292 11.247 14.4552 11.3461 14.4039C11.4452 14.3526 11.555 14.3255 11.6666 14.325H15.9516C16.4502 14.3302 16.9367 14.4792 17.3527 14.7542C17.7687 15.0291 18.0964 15.4183 18.2966 15.875Z" fill="#FFF48C"/>
<path d="M12.7016 18.75V18.095C12.7016 17.8035 12.759 17.5148 12.8706 17.2454C12.9822 16.9761 13.1457 16.7314 13.3518 16.5252C13.558 16.3191 13.8027 16.1555 14.0721 16.044C14.3414 15.9324 14.6301 15.875 14.9216 15.875H12.8816C12.3764 15.875 11.8918 15.6743 11.5346 15.317C11.1773 14.9598 10.9766 14.4752 10.9766 13.97C10.9766 13.8796 10.9945 13.7901 11.0292 13.7067C11.064 13.6233 11.1149 13.5475 11.179 13.4838C11.2432 13.4202 11.3193 13.3698 11.403 13.3357C11.4866 13.3016 11.5762 13.2843 11.6666 13.285H15.7016C16.0422 13.2843 16.3795 13.3508 16.6943 13.4807C17.0091 13.6106 17.2952 13.8012 17.5363 14.0418C17.7773 14.2824 17.9685 14.5681 18.099 14.8827C18.2295 15.1972 18.2966 15.5344 18.2966 15.875" stroke="#45413C" stroke-width="0.5" stroke-linecap="round" stroke-linejoin="round"/>
</svg>
