<svg width="25" height="24" viewBox="0 0 25 24" fill="none" xmlns="http://www.w3.org/2000/svg">
<path opacity="0.15" d="M7.4516 22.75C7.4516 22.9489 8.03106 23.1397 9.06251 23.2803C10.094 23.421 11.4929 23.5 12.9516 23.5C14.4103 23.5 15.8092 23.421 16.8407 23.2803C17.8721 23.1397 18.4516 22.9489 18.4516 22.75C18.4516 22.5511 17.8721 22.3603 16.8407 22.2197C15.8092 22.079 14.4103 22 12.9516 22C11.4929 22 10.094 22.079 9.06251 22.2197C8.03106 22.3603 7.4516 22.5511 7.4516 22.75Z" fill="#45413C"/>
<path d="M18.0166 3.49997C17.6884 3.45437 17.3555 3.54093 17.0912 3.74063C16.8268 3.94033 16.6525 4.23683 16.6066 4.56497L15.6066 11.4L14.6066 4.58497C14.5884 4.41874 14.537 4.25785 14.4554 4.11184C14.3739 3.96583 14.2639 3.83767 14.1319 3.73493C14 3.6322 13.8488 3.55699 13.6872 3.51375C13.5257 3.47052 13.3571 3.46013 13.1915 3.48322C13.0258 3.50631 12.8665 3.5624 12.723 3.64816C12.5794 3.73393 12.4545 3.84763 12.3557 3.98253C12.2569 4.11744 12.1861 4.2708 12.1476 4.43354C12.1091 4.59628 12.1037 4.76509 12.1316 4.92997L12.8566 10.1C12.6648 9.93299 12.4289 9.82473 12.1773 9.78813C11.9256 9.75153 11.6687 9.78813 11.4373 9.89357C11.2058 9.99901 11.0096 10.1688 10.8721 10.3827C10.7345 10.5967 10.6615 10.8457 10.6616 11.1V12.3C10.6408 11.962 10.4919 11.6446 10.2453 11.4126C9.9986 11.1806 9.67272 11.0515 9.33409 11.0515C8.99546 11.0515 8.66959 11.1806 8.42291 11.4126C8.17624 11.6446 8.02735 11.962 8.00659 12.3V15.905C7.98906 17.1912 8.45868 18.4364 9.32117 19.3907C10.1837 20.345 11.3752 20.9377 12.6566 21.05C13.3489 21.0959 14.0433 20.9973 14.6954 20.7603C15.3475 20.5234 15.9432 20.1533 16.4446 19.6736C16.9459 19.1939 17.3419 18.6151 17.6074 17.974C17.8728 17.333 18.002 16.6437 17.9866 15.95C17.9866 11.685 17.9866 13.11 19.0816 4.91997C19.1056 4.75671 19.097 4.59032 19.0564 4.43038C19.0158 4.27045 18.9439 4.12014 18.8449 3.98813C18.7459 3.85611 18.6217 3.74501 18.4796 3.66123C18.3374 3.57745 18.18 3.52264 18.0166 3.49997Z" fill="#FFCEBF"/>
<path d="M12.3166 6.18998C12.3447 5.90687 12.4649 5.64078 12.6587 5.43254C12.8526 5.2243 13.1094 5.08541 13.3898 5.03716C13.6702 4.98892 13.9587 5.03399 14.211 5.16546C14.4633 5.29693 14.6655 5.50754 14.7866 5.76498L14.6166 4.59498C14.5984 4.42875 14.547 4.26786 14.4654 4.12185C14.3839 3.97584 14.2739 3.84768 14.142 3.74494C14.01 3.64221 13.8588 3.567 13.6972 3.52376C13.5357 3.48053 13.3671 3.47014 13.2015 3.49323C13.0359 3.51632 12.8765 3.57241 12.733 3.65817C12.5894 3.74394 12.4645 3.85764 12.3657 3.99254C12.2669 4.12745 12.1961 4.28081 12.1576 4.44355C12.1191 4.60629 12.1137 4.7751 12.1416 4.93998L12.3166 6.18998Z" fill="#FFDCD1"/>
<path d="M18.0166 3.5C17.6884 3.4544 17.3556 3.54096 17.0912 3.74066C16.8268 3.94036 16.6525 4.23686 16.6066 4.565L16.4516 5.635C16.568 5.36609 16.7715 5.14417 17.0293 5.00497C17.2871 4.86577 17.5843 4.81739 17.873 4.86762C18.1616 4.91784 18.425 5.06376 18.6207 5.28187C18.8163 5.49998 18.9329 5.77759 18.9516 6.07C19.0016 5.71 19.0516 5.33 19.1066 4.92C19.1304 4.75488 19.121 4.58667 19.0788 4.42526C19.0366 4.26385 18.9626 4.11252 18.861 3.98018C18.7594 3.84784 18.6324 3.73718 18.4873 3.65471C18.3423 3.57224 18.1823 3.51964 18.0166 3.5Z" fill="#FFDCD1"/>
<path d="M14.6116 15.95C14.3201 15.95 14.0314 16.0074 13.762 16.1189C13.4927 16.2305 13.248 16.394 13.0418 16.6002C12.8357 16.8063 12.6722 17.0511 12.5606 17.3204C12.449 17.5897 12.3916 17.8784 12.3916 18.17V18.825" stroke="#45413C" stroke-width="0.5" stroke-linecap="round" stroke-linejoin="round"/>
<path d="M18.0166 3.49997C17.6884 3.45437 17.3555 3.54093 17.0912 3.74063C16.8268 3.94033 16.6525 4.23683 16.6066 4.56497L15.6066 11.4L14.6066 4.58497C14.5884 4.41874 14.537 4.25785 14.4554 4.11184C14.3739 3.96583 14.2639 3.83767 14.1319 3.73493C14 3.6322 13.8488 3.55699 13.6872 3.51375C13.5257 3.47052 13.3571 3.46013 13.1915 3.48322C13.0258 3.50631 12.8665 3.5624 12.723 3.64816C12.5794 3.73393 12.4545 3.84763 12.3557 3.98253C12.2569 4.11744 12.1861 4.2708 12.1476 4.43354C12.1091 4.59628 12.1037 4.76509 12.1316 4.92997L12.8566 10.1C12.6648 9.93299 12.4289 9.82473 12.1773 9.78813C11.9256 9.75153 11.6687 9.78813 11.4373 9.89357C11.2058 9.99901 11.0096 10.1688 10.8721 10.3827C10.7345 10.5967 10.6615 10.8457 10.6616 11.1V12.3C10.6408 11.962 10.4919 11.6446 10.2453 11.4126C9.9986 11.1806 9.67272 11.0515 9.33409 11.0515C8.99546 11.0515 8.66959 11.1806 8.42291 11.4126C8.17624 11.6446 8.02735 11.962 8.00659 12.3V15.905C7.98906 17.1912 8.45868 18.4364 9.32117 19.3907C10.1837 20.345 11.3752 20.9377 12.6566 21.05C13.3489 21.0959 14.0433 20.9973 14.6954 20.7603C15.3475 20.5234 15.9432 20.1533 16.4446 19.6736C16.9459 19.1939 17.3419 18.6151 17.6074 17.974C17.8728 17.333 18.002 16.6437 17.9866 15.95C17.9866 11.685 17.9866 13.11 19.0816 4.91997C19.1056 4.75671 19.097 4.59032 19.0564 4.43038C19.0158 4.27045 18.9439 4.12014 18.8449 3.98813C18.7459 3.85611 18.6217 3.74501 18.4796 3.66123C18.3374 3.57745 18.18 3.52264 18.0166 3.49997V3.49997Z" stroke="#45413C" stroke-width="0.5" stroke-linecap="round" stroke-linejoin="round"/>
<path d="M8.0166 10.99H10.6766V15.27H8.0166V10.99Z" fill="#FFCEBF"/>
<path d="M10.6716 9.78497H13.3316V15.265H10.6716V9.78497Z" fill="#FFCEBF"/>
<path d="M9.3466 11C8.99473 11 8.65719 11.1394 8.40791 11.3878C8.15863 11.6361 8.01792 11.9731 8.0166 12.325V13.5C8.01792 13.1481 8.15863 12.8111 8.40791 12.5628C8.65719 12.3144 8.99473 12.175 9.3466 12.175C9.69801 12.175 10.035 12.3146 10.2835 12.5631C10.532 12.8116 10.6716 13.1486 10.6716 13.5V12.3C10.6651 11.9529 10.5226 11.6223 10.2748 11.3792C10.027 11.1361 9.69372 10.9999 9.3466 11Z" fill="#FFDCD1"/>
<path d="M12.0016 9.78497C11.6493 9.78629 11.3117 9.92684 11.0626 10.176C10.8135 10.4251 10.6729 10.7626 10.6716 11.115V12.315C10.6755 11.9648 10.8174 11.6304 11.0664 11.3842C11.3154 11.138 11.6514 11 12.0016 11C12.3535 11 12.691 11.1394 12.9403 11.3878C13.1896 11.6361 13.3303 11.9731 13.3316 12.325V11.125C13.3323 10.9497 13.2984 10.7759 13.2319 10.6137C13.1654 10.4515 13.0676 10.3039 12.9441 10.1795C12.8206 10.0551 12.6738 9.9562 12.5121 9.8885C12.3504 9.82081 12.1769 9.78563 12.0016 9.78497Z" fill="#FFDCD1"/>
<path d="M8.0166 10.99H10.6766V15.27H8.0166V10.99Z" stroke="#45413C" stroke-width="0.5" stroke-linecap="round" stroke-linejoin="round"/>
<path d="M10.6716 9.78497H13.3316V15.265H10.6716V9.78497Z" stroke="#45413C" stroke-width="0.5" stroke-linecap="round" stroke-linejoin="round"/>
<path d="M17.9866 15.95C17.9853 15.2621 17.7115 14.6029 17.2251 14.1165C16.7387 13.6301 16.0794 13.3563 15.3916 13.355H11.3516C11.2612 13.355 11.1717 13.3729 11.0883 13.4076C11.0049 13.4423 10.9291 13.4932 10.8655 13.5574C10.8018 13.6215 10.7514 13.6976 10.7173 13.7813C10.6832 13.865 10.6659 13.9546 10.6666 14.045C10.6666 14.5502 10.8673 15.0348 11.2246 15.392C11.5818 15.7493 12.0664 15.95 12.5716 15.95H14.6116" fill="#FFCEBF"/>
<path d="M17.9866 15.95C17.9853 15.2621 17.7115 14.6029 17.2251 14.1165C16.7387 13.6301 16.0794 13.3563 15.3916 13.355H11.3516C11.2612 13.355 11.1717 13.3729 11.0883 13.4076C11.0049 13.4423 10.9291 13.4932 10.8655 13.5574C10.8018 13.6215 10.7514 13.6976 10.7173 13.7813C10.6832 13.865 10.6659 13.9546 10.6666 14.045C10.6678 14.267 10.7084 14.4871 10.7866 14.695C10.8498 14.6037 10.9343 14.5292 11.0327 14.4778C11.1311 14.4264 11.2406 14.3997 11.3516 14.4H15.6116C16.1149 14.4013 16.607 14.5484 17.0285 14.8235C17.45 15.0985 17.7828 15.4898 17.9866 15.95Z" fill="#FFDCD1"/>
<path d="M17.9866 15.95C17.9853 15.2621 17.7115 14.6029 17.2251 14.1165C16.7387 13.6301 16.0794 13.3563 15.3916 13.355H11.3516C11.2612 13.355 11.1717 13.3729 11.0883 13.4076C11.0049 13.4423 10.9291 13.4932 10.8655 13.5574C10.8018 13.6215 10.7514 13.6976 10.7173 13.7813C10.6832 13.865 10.6659 13.9546 10.6666 14.045C10.6666 14.5502 10.8673 15.0348 11.2246 15.392C11.5818 15.7493 12.0664 15.95 12.5716 15.95H14.6116" stroke="#45413C" stroke-width="0.5" stroke-linecap="round" stroke-linejoin="round"/>
</svg>
