<svg width="240" height="240" viewBox="0 0 240 240" fill="none" xmlns="http://www.w3.org/2000/svg">
<mask id="path-1-inside-1_155_3487" fill="white">
<path d="M81.3885 38.7734C82.2841 35.6837 85.7976 34.203 88.6345 35.7196L93.3339 38.232C95.7248 39.5101 98.6983 38.677 100.077 36.3426L102.787 31.7542C104.423 28.9843 108.194 28.4238 110.565 30.5984L114.492 34.2005C116.489 36.0331 119.577 35.9656 121.493 34.0474L125.258 30.2771C127.532 28.001 131.324 28.396 133.079 31.0918L135.987 35.5573C137.466 37.8292 140.473 38.5316 142.806 37.1501L147.391 34.4348C150.159 32.7955 153.734 34.1212 154.764 37.1689L156.47 42.2172C157.338 44.7857 160.076 46.2138 162.679 45.4558L167.795 43.9661C170.883 43.0667 174.016 45.2398 174.256 48.4478L174.653 53.7618C174.855 56.4654 177.151 58.5295 179.861 58.4427L185.187 58.2721C188.402 58.1691 190.896 61.053 190.331 64.2198L189.393 69.4656C188.917 72.1344 190.628 74.7049 193.274 75.2947L198.475 76.454C201.615 77.1538 203.313 80.5674 201.978 83.494L199.766 88.3418C198.64 90.8083 199.658 93.7235 202.075 94.9529L206.824 97.3692C209.691 98.8279 210.487 102.557 208.466 105.059L205.118 109.205C203.414 111.314 203.675 114.39 205.71 116.182L209.709 119.704C212.124 121.83 211.968 125.639 209.387 127.56L205.113 130.743C202.939 132.362 202.427 135.407 203.952 137.648L206.95 142.054C208.759 144.714 207.661 148.365 204.684 149.584L199.753 151.603C197.244 152.631 195.99 155.453 196.91 158.003L198.718 163.016C199.81 166.042 197.838 169.305 194.651 169.746L189.373 170.475C186.687 170.847 184.771 173.268 185.028 175.967L185.533 181.272C185.837 184.475 183.116 187.145 179.92 186.779L174.625 186.173C171.932 185.865 169.474 187.734 169.051 190.412L168.221 195.676C167.72 198.853 164.419 200.763 161.415 199.613L156.438 197.71C153.905 196.742 151.06 197.941 149.985 200.43L147.871 205.321C146.595 208.274 142.924 209.303 140.3 207.443L135.952 204.361C133.74 202.794 130.686 203.248 129.025 205.391L125.762 209.603C123.792 212.146 119.98 212.23 117.901 209.775L114.456 205.709C112.704 203.641 109.632 203.321 107.491 204.984L103.282 208.252C100.742 210.226 97.0289 209.358 95.6253 206.464L93.3001 201.669C92.1171 199.23 89.2218 198.156 86.7343 199.234L81.8451 201.354C78.8935 202.633 75.513 200.87 74.8733 197.717L73.8136 192.495C73.2744 189.838 70.7371 188.078 68.0596 188.503L62.797 189.34C59.62 189.845 56.7842 187.297 56.9486 184.084L57.2209 178.762C57.3594 176.055 55.3395 173.719 52.6403 173.465L47.3349 172.967C44.132 172.666 42.0192 169.492 42.9774 166.422L44.5646 161.335C45.3722 158.747 43.9966 155.982 41.4452 155.065L36.4304 153.263C33.403 152.175 32.1458 148.576 33.8376 145.84L36.64 141.307C38.0658 139.001 37.421 135.981 35.1778 134.459L30.7686 131.466C28.1069 129.66 27.7843 125.861 30.1034 123.631L33.945 119.938C35.8994 118.059 36.0259 114.974 34.2318 112.941L30.7054 108.946C28.5765 106.535 29.2089 102.775 32.0096 101.192L36.6488 98.5704C39.0092 97.2366 39.899 94.2796 38.6667 91.8647L36.2446 87.1182C34.7824 84.2528 36.33 80.7682 39.4362 79.9318L44.5818 78.5463C47.1996 77.8413 48.7968 75.1985 48.2038 72.5531L47.0382 67.3533C46.3346 64.2143 48.7001 61.2241 51.9168 61.1864L57.2452 61.124C59.9562 61.0923 62.1604 58.9297 62.244 56.2199L62.4081 50.8937C62.5072 47.6783 65.5421 45.3703 68.6671 46.1338L73.8436 47.3985C76.4772 48.0419 79.1501 46.4955 79.9049 43.8915L81.3885 38.7734Z"/>
</mask>
<path d="M81.3885 38.7734C82.2841 35.6837 85.7976 34.203 88.6345 35.7196L93.3339 38.232C95.7248 39.5101 98.6983 38.677 100.077 36.3426L102.787 31.7542C104.423 28.9843 108.194 28.4238 110.565 30.5984L114.492 34.2005C116.489 36.0331 119.577 35.9656 121.493 34.0474L125.258 30.2771C127.532 28.001 131.324 28.396 133.079 31.0918L135.987 35.5573C137.466 37.8292 140.473 38.5316 142.806 37.1501L147.391 34.4348C150.159 32.7955 153.734 34.1212 154.764 37.1689L156.47 42.2172C157.338 44.7857 160.076 46.2138 162.679 45.4558L167.795 43.9661C170.883 43.0667 174.016 45.2398 174.256 48.4478L174.653 53.7618C174.855 56.4654 177.151 58.5295 179.861 58.4427L185.187 58.2721C188.402 58.1691 190.896 61.053 190.331 64.2198L189.393 69.4656C188.917 72.1344 190.628 74.7049 193.274 75.2947L198.475 76.454C201.615 77.1538 203.313 80.5674 201.978 83.494L199.766 88.3418C198.64 90.8083 199.658 93.7235 202.075 94.9529L206.824 97.3692C209.691 98.8279 210.487 102.557 208.466 105.059L205.118 109.205C203.414 111.314 203.675 114.39 205.71 116.182L209.709 119.704C212.124 121.83 211.968 125.639 209.387 127.56L205.113 130.743C202.939 132.362 202.427 135.407 203.952 137.648L206.95 142.054C208.759 144.714 207.661 148.365 204.684 149.584L199.753 151.603C197.244 152.631 195.99 155.453 196.91 158.003L198.718 163.016C199.81 166.042 197.838 169.305 194.651 169.746L189.373 170.475C186.687 170.847 184.771 173.268 185.028 175.967L185.533 181.272C185.837 184.475 183.116 187.145 179.92 186.779L174.625 186.173C171.932 185.865 169.474 187.734 169.051 190.412L168.221 195.676C167.72 198.853 164.419 200.763 161.415 199.613L156.438 197.71C153.905 196.742 151.06 197.941 149.985 200.43L147.871 205.321C146.595 208.274 142.924 209.303 140.3 207.443L135.952 204.361C133.74 202.794 130.686 203.248 129.025 205.391L125.762 209.603C123.792 212.146 119.98 212.23 117.901 209.775L114.456 205.709C112.704 203.641 109.632 203.321 107.491 204.984L103.282 208.252C100.742 210.226 97.0289 209.358 95.6253 206.464L93.3001 201.669C92.1171 199.23 89.2218 198.156 86.7343 199.234L81.8451 201.354C78.8935 202.633 75.513 200.87 74.8733 197.717L73.8136 192.495C73.2744 189.838 70.7371 188.078 68.0596 188.503L62.797 189.34C59.62 189.845 56.7842 187.297 56.9486 184.084L57.2209 178.762C57.3594 176.055 55.3395 173.719 52.6403 173.465L47.3349 172.967C44.132 172.666 42.0192 169.492 42.9774 166.422L44.5646 161.335C45.3722 158.747 43.9966 155.982 41.4452 155.065L36.4304 153.263C33.403 152.175 32.1458 148.576 33.8376 145.84L36.64 141.307C38.0658 139.001 37.421 135.981 35.1778 134.459L30.7686 131.466C28.1069 129.66 27.7843 125.861 30.1034 123.631L33.945 119.938C35.8994 118.059 36.0259 114.974 34.2318 112.941L30.7054 108.946C28.5765 106.535 29.2089 102.775 32.0096 101.192L36.6488 98.5704C39.0092 97.2366 39.899 94.2796 38.6667 91.8647L36.2446 87.1182C34.7824 84.2528 36.33 80.7682 39.4362 79.9318L44.5818 78.5463C47.1996 77.8413 48.7968 75.1985 48.2038 72.5531L47.0382 67.3533C46.3346 64.2143 48.7001 61.2241 51.9168 61.1864L57.2452 61.124C59.9562 61.0923 62.1604 58.9297 62.244 56.2199L62.4081 50.8937C62.5072 47.6783 65.5421 45.3703 68.6671 46.1338L73.8436 47.3985C76.4772 48.0419 79.1501 46.4955 79.9049 43.8915L81.3885 38.7734Z" fill="white" stroke="black" stroke-width="2" mask="url(#path-1-inside-1_155_3487)"/>
<mask id="path-2-inside-2_155_3487" fill="white">
<path d="M84.692 46.6123C85.5876 43.5226 89.1011 42.0418 91.9381 43.5585L95.3352 45.3746C97.7261 46.6528 100.7 45.8196 102.078 43.4852L104.037 40.1684C105.673 37.3985 109.444 36.838 111.815 39.0126L114.654 41.6164C116.652 43.449 119.739 43.3815 121.655 41.4633L124.377 38.7379C126.65 36.4618 130.442 36.8568 132.198 39.5526L134.3 42.7806C135.779 45.0525 138.786 45.7549 141.119 44.3734L144.433 42.4106C147.201 40.7713 150.776 42.0971 151.806 45.1447L153.039 48.794C153.907 51.3625 156.645 52.7906 159.248 52.0326L162.946 50.9557C166.035 50.0563 169.168 52.2294 169.407 55.4374L169.694 59.2788C169.896 61.9824 172.193 64.0465 174.903 63.9597L178.753 63.8364C181.968 63.7334 184.462 66.6174 183.896 69.7841L183.219 73.5762C182.742 76.245 184.453 78.8155 187.099 79.4053L190.859 80.2433C193.999 80.9432 195.697 84.3567 194.362 87.2833L192.763 90.7878C191.637 93.2542 192.655 96.1694 195.072 97.3988L198.505 99.1455C201.372 100.604 202.168 104.333 200.147 106.835L197.726 109.832C196.023 111.941 196.284 115.018 198.319 116.81L201.21 119.355C203.624 121.481 203.468 125.291 200.888 127.212L197.798 129.513C195.624 131.132 195.111 134.177 196.637 136.418L198.804 139.603C200.614 142.262 199.515 145.914 196.538 147.133L192.973 148.593C190.464 149.62 189.211 152.442 190.131 154.992L191.438 158.616C192.53 161.642 190.557 164.905 187.371 165.346L183.555 165.873C180.869 166.244 178.954 168.666 179.21 171.365L179.575 175.2C179.88 178.402 177.158 181.073 173.962 180.707L170.135 180.269C167.442 179.96 164.984 181.83 164.561 184.508L163.961 188.313C163.46 191.49 160.159 193.4 157.155 192.251L153.557 190.875C151.024 189.906 148.179 191.105 147.104 193.594L145.576 197.13C144.3 200.083 140.629 201.112 138.004 199.252L134.862 197.024C132.65 195.457 129.595 195.91 127.935 198.054L125.576 201.099C123.606 203.642 119.794 203.725 117.715 201.271L115.225 198.332C113.472 196.263 110.401 195.943 108.26 197.606L105.217 199.969C102.677 201.942 98.9637 201.075 97.5601 198.18L95.8792 194.714C94.6963 192.275 91.801 191.201 89.3135 192.279L85.7792 193.811C82.8276 195.091 79.4471 193.327 78.8074 190.175L78.0413 186.4C77.5022 183.743 74.9648 181.983 72.2874 182.408L68.4831 183.013C65.3061 183.518 62.4703 180.97 62.6347 177.757L62.8315 173.91C62.9701 171.203 60.9502 168.867 58.251 168.613L54.4158 168.253C51.2129 167.952 49.1001 164.779 50.0583 161.708L51.2057 158.03C52.0132 155.442 50.6376 152.678 48.0862 151.761L44.4611 150.458C41.4337 149.37 40.1765 145.771 41.8683 143.035L43.8941 139.758C45.3199 137.452 44.6751 134.433 42.4319 132.91L39.2446 130.747C36.5829 128.94 36.2603 125.141 38.5794 122.912L41.3564 120.242C43.3108 118.363 43.4373 115.278 41.6432 113.245L39.094 110.357C36.9652 107.946 37.5976 104.186 40.3982 102.603L43.7519 100.708C46.1122 99.374 47.002 96.417 45.7697 94.0022L44.0188 90.571C42.5566 87.7056 44.1042 84.221 47.2105 83.3846L50.9301 82.383C53.5479 81.6781 55.1452 79.0353 54.5521 76.3898L53.7096 72.631C53.0059 69.492 55.3714 66.5018 58.5881 66.4641L62.4399 66.4191C65.1509 66.3873 67.3552 64.2247 67.4387 61.5149L67.5573 57.6647C67.6564 54.4493 70.6913 52.1413 73.8163 52.9048L77.5583 53.819C80.1919 54.4625 82.8648 52.916 83.6196 50.3121L84.692 46.6123Z"/>
</mask>
<path d="M84.692 46.6123C85.5876 43.5226 89.1011 42.0418 91.9381 43.5585L95.3352 45.3746C97.7261 46.6528 100.7 45.8196 102.078 43.4852L104.037 40.1684C105.673 37.3985 109.444 36.838 111.815 39.0126L114.654 41.6164C116.652 43.449 119.739 43.3815 121.655 41.4633L124.377 38.7379C126.65 36.4618 130.442 36.8568 132.198 39.5526L134.3 42.7806C135.779 45.0525 138.786 45.7549 141.119 44.3734L144.433 42.4106C147.201 40.7713 150.776 42.0971 151.806 45.1447L153.039 48.794C153.907 51.3625 156.645 52.7906 159.248 52.0326L162.946 50.9557C166.035 50.0563 169.168 52.2294 169.407 55.4374L169.694 59.2788C169.896 61.9824 172.193 64.0465 174.903 63.9597L178.753 63.8364C181.968 63.7334 184.462 66.6174 183.896 69.7841L183.219 73.5762C182.742 76.245 184.453 78.8155 187.099 79.4053L190.859 80.2433C193.999 80.9432 195.697 84.3567 194.362 87.2833L192.763 90.7878C191.637 93.2542 192.655 96.1694 195.072 97.3988L198.505 99.1455C201.372 100.604 202.168 104.333 200.147 106.835L197.726 109.832C196.023 111.941 196.284 115.018 198.319 116.81L201.21 119.355C203.624 121.481 203.468 125.291 200.888 127.212L197.798 129.513C195.624 131.132 195.111 134.177 196.637 136.418L198.804 139.603C200.614 142.262 199.515 145.914 196.538 147.133L192.973 148.593C190.464 149.62 189.211 152.442 190.131 154.992L191.438 158.616C192.53 161.642 190.557 164.905 187.371 165.346L183.555 165.873C180.869 166.244 178.954 168.666 179.21 171.365L179.575 175.2C179.88 178.402 177.158 181.073 173.962 180.707L170.135 180.269C167.442 179.96 164.984 181.83 164.561 184.508L163.961 188.313C163.46 191.49 160.159 193.4 157.155 192.251L153.557 190.875C151.024 189.906 148.179 191.105 147.104 193.594L145.576 197.13C144.3 200.083 140.629 201.112 138.004 199.252L134.862 197.024C132.65 195.457 129.595 195.91 127.935 198.054L125.576 201.099C123.606 203.642 119.794 203.725 117.715 201.271L115.225 198.332C113.472 196.263 110.401 195.943 108.26 197.606L105.217 199.969C102.677 201.942 98.9637 201.075 97.5601 198.18L95.8792 194.714C94.6963 192.275 91.801 191.201 89.3135 192.279L85.7792 193.811C82.8276 195.091 79.4471 193.327 78.8074 190.175L78.0413 186.4C77.5022 183.743 74.9648 181.983 72.2874 182.408L68.4831 183.013C65.3061 183.518 62.4703 180.97 62.6347 177.757L62.8315 173.91C62.9701 171.203 60.9502 168.867 58.251 168.613L54.4158 168.253C51.2129 167.952 49.1001 164.779 50.0583 161.708L51.2057 158.03C52.0132 155.442 50.6376 152.678 48.0862 151.761L44.4611 150.458C41.4337 149.37 40.1765 145.771 41.8683 143.035L43.8941 139.758C45.3199 137.452 44.6751 134.433 42.4319 132.91L39.2446 130.747C36.5829 128.94 36.2603 125.141 38.5794 122.912L41.3564 120.242C43.3108 118.363 43.4373 115.278 41.6432 113.245L39.094 110.357C36.9652 107.946 37.5976 104.186 40.3982 102.603L43.7519 100.708C46.1122 99.374 47.002 96.417 45.7697 94.0022L44.0188 90.571C42.5566 87.7056 44.1042 84.221 47.2105 83.3846L50.9301 82.383C53.5479 81.6781 55.1452 79.0353 54.5521 76.3898L53.7096 72.631C53.0059 69.492 55.3714 66.5018 58.5881 66.4641L62.4399 66.4191C65.1509 66.3873 67.3552 64.2247 67.4387 61.5149L67.5573 57.6647C67.6564 54.4493 70.6913 52.1413 73.8163 52.9048L77.5583 53.819C80.1919 54.4625 82.8648 52.916 83.6196 50.3121L84.692 46.6123Z" fill="#FCEA2B" stroke="black" stroke-width="1.7898" mask="url(#path-2-inside-2_155_3487)"/>
<circle cx="119.87" cy="119.956" r="69.5176" transform="rotate(-22.8527 119.87 119.956)" fill="#2C2C2C" stroke="black" stroke-width="0.894899"/>
<circle cx="119.87" cy="119.956" r="44.2157" transform="rotate(-22.8527 119.87 119.956)" fill="#FFEA01" stroke="black" stroke-width="0.894899"/>
<path d="M151.662 108.917C154.415 116.846 154.106 125.517 150.796 133.23C147.486 140.942 141.413 147.14 133.77 150.606C126.126 154.073 117.463 154.559 109.48 151.968C101.497 149.377 94.7701 143.897 90.6189 136.602" stroke="black" stroke-width="0.894899"/>
<ellipse cx="150.914" cy="108.09" rx="6.86872" ry="5.43829" transform="rotate(-22.8527 150.914 108.09)" fill="#FFEA01"/>
<path fill-rule="evenodd" clip-rule="evenodd" d="M144.729 110.585C146.374 113.108 149.865 114.091 153.014 112.764C156.164 111.437 157.898 108.251 157.241 105.312L157.793 105.079C158.561 108.295 156.674 111.804 153.223 113.259C149.772 114.713 145.943 113.613 144.177 110.818L144.729 110.585Z" fill="black"/>
<path fill-rule="evenodd" clip-rule="evenodd" d="M110.077 130.099C113.798 128.53 114.484 121.729 111.609 114.906C108.734 108.084 103.386 103.825 99.6648 105.393C96.8494 106.58 95.7715 110.762 96.6588 115.682L102.517 120.121L98.6579 121.747C101.624 127.883 106.572 131.576 110.077 130.099Z" fill="#000B1F"/>
<path fill-rule="evenodd" clip-rule="evenodd" d="M134.065 119.988C137.786 118.42 138.472 111.618 135.597 104.796C132.722 97.9738 127.374 93.7146 123.653 95.2829C120.838 96.4694 119.76 100.652 120.647 105.572L126.505 110.01L122.646 111.636C125.612 117.772 130.56 121.466 134.065 119.988Z" fill="#000B1F"/>
<path d="M72.3819 133.863L71.8485 128.548L68.1422 128.92L66.0683 126.906L71.1926 122.011L70.5449 115.555L62.6255 123.549L55.9679 117.059L56.6381 123.739L62.5989 129.435L62.603 129.476L57.2675 130.011L57.8008 135.326L72.3819 133.863Z" fill="white"/>
<path d="M70.8826 115.974L74.6303 100.772L71.4111 99.9783L68.9028 110.153L66.2598 109.501L68.5232 100.32L65.761 99.6394L63.4976 108.82L61.113 108.232L63.5723 98.2566L60.353 97.463L56.6543 112.466L70.8826 115.974Z" fill="white"/>
<path d="M75.248 98.8058L83.8603 85.7301L81.0913 83.9063L75.3272 92.6576L73.0539 91.1603L78.2551 83.2636L75.8793 81.6988L70.6781 89.5955L68.627 88.2445L74.2785 79.6641L71.5095 77.8403L63.0098 90.7451L75.248 98.8058Z" fill="white"/>
<path d="M85.5621 84.6929L89.7624 81.3923L86.993 77.868L92.0461 73.8973C95.329 71.3175 96.0474 68.4885 94.0654 65.9332C92.0168 63.3261 89.0602 63.3068 85.7934 65.8738L76.5078 73.1704L85.5621 84.6929ZM85.134 75.5024L82.567 72.2355L86.2522 69.3397C87.7167 68.1889 88.9765 68.1359 89.7985 69.182C90.6331 70.2441 90.2837 71.4557 88.8193 72.6065L85.134 75.5024Z" fill="white"/>
<path d="M110.378 73.0437C115.646 71.9346 118.624 69.1948 117.98 66.235C117.432 63.6314 115.071 62.7481 110.119 63.268L107.396 63.5485C105.515 63.7562 104.643 63.5844 104.529 63.0436C104.389 62.2784 105.789 61.4814 107.828 61.0313C110.027 60.5473 112.529 60.7106 114.311 61.4231L115.14 58.1111C113.137 57.3407 110.142 57.2185 107.117 57.8553C102.01 58.9307 98.8924 61.4068 99.5419 64.4911C100.077 67.0346 102.286 67.8873 106.913 67.4149L109.62 67.1587C111.854 66.9393 112.855 67.1259 112.986 67.7467C113.142 68.4877 111.961 69.2383 109.939 69.6642C107.195 70.242 103.888 69.9343 101.948 68.9625L100.799 72.4463C103.033 73.5235 106.934 73.769 110.378 73.0437Z" fill="#FCEA2B"/>
<path d="M118.617 70.2045L123.535 71.283L125.503 62.3067L125.543 62.3155L128.213 72.3089L132.671 73.2866L139.118 65.2923L139.158 65.3011L137.189 74.2774L142.107 75.3559L145.246 61.0418L138.409 59.5424L131.38 68.1843L131.34 68.1755L128.513 57.3722L121.756 55.8904L118.617 70.2045Z" fill="#FCEA2B"/>
<path d="M142.095 76.9182L146.678 79.5814L154.04 66.9107L149.457 64.2476L142.095 76.9182Z" fill="#FCEA2B"/>
<path d="M148.093 80.4412L158.596 90.064L161.237 87.1816L154.672 81.1673L161.931 73.2445L157.992 69.636L148.093 80.4412Z" fill="#FCEA2B"/>
<path d="M159.49 90.9785L166.947 104.746L169.862 103.166L164.871 93.9523L167.265 92.6558L171.769 100.97L174.27 99.6151L169.766 91.3008L171.926 90.131L176.819 99.1652L179.735 97.586L172.375 83.9988L159.49 90.9785Z" fill="#FCEA2B"/>
<path d="M167.571 107.839L169.194 123.411L172.492 123.068L171.406 112.645L174.113 112.363L175.093 121.768L177.923 121.473L176.943 112.068L179.385 111.814L180.45 122.033L183.748 121.689L182.146 106.32L167.571 107.839Z" fill="white"/>
<path d="M167.887 129.25L166.409 135.062L178.82 145.716L180.187 140.341L171.504 133.296L171.514 133.256L182.513 131.197L183.875 125.841L167.887 129.25Z" fill="white"/>
<path d="M164.378 141.534L155.549 154.464L158.287 156.334L164.197 147.68L166.445 149.215L161.113 157.024L163.462 158.628L168.794 150.819L170.822 152.204L165.029 160.689L167.767 162.559L176.48 149.797L164.378 141.534Z" fill="white"/>
<path d="M142.498 163.497C141.396 164.279 140.379 165.604 140.131 166.633L142.109 167.864C142.143 167.489 142.437 167.054 142.721 166.853C143.188 166.521 143.614 166.52 144.045 166.666L145.808 167.347C146.4 167.58 146.992 167.636 147.499 167.502L147.511 167.519C145.621 169.488 145.241 171.64 146.508 173.426C148.214 175.829 151.033 175.912 154.238 173.637L164.285 166.506L155.803 154.556L151.447 157.647L154.267 161.62L151.713 163.432C150.929 163.989 149.957 164.176 148.959 163.831L147.319 163.112C145.936 162.613 144.301 162.218 142.498 163.497ZM156.008 164.073L158.105 167.027L153.715 170.143C152.463 171.031 151.338 171.002 150.675 170.067C150.023 169.149 150.367 168.077 151.618 167.189L156.008 164.073Z" fill="white"/>
<path d="M134.072 166.967L128.881 168.228L130.06 173.081L125.52 184.126L131.049 182.782L133.447 175.838L133.467 175.834L138.984 180.854L144.453 179.525L135.251 171.82L134.072 166.967Z" fill="white"/>
<path d="M122.573 169.866L112.26 168.394C106.627 167.591 103.117 169.736 102.452 174.397C101.787 179.057 104.558 182.098 110.191 182.902L120.504 184.373L122.573 169.866ZM116.915 172.718L115.866 180.073L111.429 179.44C108.633 179.041 107.243 177.478 107.578 175.128C107.914 172.778 109.682 171.686 112.478 172.085L116.915 172.718Z" fill="white"/>
<path d="M104.395 167.614L99.6267 164.82L97.3621 166.459L91.0579 162.765L91.3623 159.978L86.5768 157.174L85.3314 173.429L90.6821 176.564L104.395 167.614ZM94.9405 168.527L89.7521 172.2L89.7167 172.179L90.4199 165.878L94.9405 168.527Z" fill="white"/>
<path d="M83.2 152.367L79.9152 148.155L75.977 151.226L64.0421 151.63L67.5409 156.117L74.8567 155.447L74.8693 155.463L72.5624 162.557L76.0234 166.995L79.2618 155.438L83.2 152.367Z" fill="white"/>
<path d="M75.7713 140.223C75.1377 138.802 73.8007 138.166 72.5857 138.708C71.352 139.258 70.9507 140.669 71.5842 142.09C72.2178 143.511 73.5278 144.137 74.7615 143.586C75.9765 143.044 76.4049 141.643 75.7713 140.223Z" fill="white"/>
</svg>
