<svg width="24" height="20" viewBox="0 0 24 20" fill="none" xmlns="http://www.w3.org/2000/svg">
<path d="M23.8131 2.25693C22.92 2.64499 21.9751 2.90066 21.0081 3.01584C22.0243 2.4208 22.7885 1.47547 23.1574 0.357147C22.1966 0.918941 21.1473 1.31312 20.0543 1.52281C19.594 1.04044 19.0404 0.656699 18.4273 0.394917C17.8141 0.133134 17.1541 -0.00122386 16.4873 8.39991e-06C13.788 8.39991e-06 11.6035 2.15276 11.6035 4.8065C11.6016 5.17562 11.6439 5.54365 11.7295 5.90271C9.79381 5.81197 7.89842 5.31819 6.16454 4.45296C4.43066 3.58773 2.89647 2.3701 1.66014 0.877974C1.2264 1.60918 0.997015 2.44345 0.995958 3.29362C0.995958 4.96026 1.86549 6.43346 3.17847 7.29655C2.40057 7.27808 1.6386 7.07219 0.957268 6.69635V6.75588C0.957268 9.0872 2.64376 11.0267 4.87587 11.4681C4.45613 11.58 4.02358 11.6367 3.58918 11.6368C3.28094 11.6373 2.9734 11.6074 2.67104 11.5475C3.29156 13.4572 5.0976 14.8461 7.23695 14.8857C5.49857 16.2255 3.36429 16.9496 1.16957 16.9442C0.779997 16.9437 0.390789 16.9205 0.00390625 16.8748C2.23661 18.3005 4.83195 19.0546 7.481 19.0474C16.4769 19.0474 21.3915 11.7211 21.3915 5.36701C21.3915 5.15868 21.3861 4.95034 21.3762 4.74697C22.3301 4.06844 23.1553 3.22522 23.8131 2.25693Z" fill="#2E2E2E"/>
</svg>
