<svg width="23" height="22" viewBox="0 0 23 22" fill="none" xmlns="http://www.w3.org/2000/svg">
<path fill-rule="evenodd" clip-rule="evenodd" d="M22.2259 10.6995C22.2259 4.79087 17.2507 0 11.1149 0C4.97904 0 0.00390625 4.79087 0.00390625 10.6995C0.00390625 16.0396 4.06636 20.4661 9.37879 21.2695L9.37879 13.7932H6.5569V10.6995H9.37879V8.34224C9.37879 5.66116 11.038 4.179 13.5757 4.179C14.7914 4.179 16.0632 4.38821 16.0632 4.38821V7.02152H14.6615C13.282 7.02152 12.8505 7.84595 12.8505 8.69331V10.6995H15.9318L15.4397 13.7932H12.851L12.851 21.2704C18.1634 20.4675 22.2259 16.0411 22.2259 10.6995Z" fill="#2E2E2E"/>
</svg>
