<svg width="23" height="23" viewBox="0 0 23 23" fill="none" xmlns="http://www.w3.org/2000/svg">
<path d="M11.2938 0C5.05914 0 0.00390625 5.05298 0.00390625 11.2848C0.00390625 15.9045 2.78605 19.8744 6.7627 21.6225C6.73246 20.8366 6.75766 19.8895 6.95927 19.0331C7.17599 18.1162 8.41082 12.8818 8.41082 12.8818C8.41082 12.8818 8.04793 12.1614 8.04793 11.0984C8.04793 9.42585 9.01564 8.17646 10.2253 8.17646C11.2534 8.17646 11.7474 8.94725 11.7474 9.86918C11.7474 10.9019 11.0871 12.4435 10.7494 13.8743C10.4672 15.0733 11.3492 16.0456 12.5336 16.0456C14.6706 16.0456 16.1121 13.3 16.1121 10.0455C16.1121 7.57191 14.4438 5.72302 11.4147 5.72302C7.99249 5.72302 5.85548 8.27722 5.85548 11.1286C5.85548 12.111 6.14781 12.8063 6.60142 13.3403C6.80806 13.5871 6.8383 13.6879 6.7627 13.97C6.70726 14.1766 6.5863 14.6753 6.53086 14.8768C6.45526 15.164 6.22341 15.2647 5.96637 15.1589C4.38881 14.5141 3.65295 12.7911 3.65295 10.8465C3.65295 7.64245 6.35949 3.79855 11.7222 3.79855C16.0315 3.79855 18.8691 6.91699 18.8691 10.2621C18.8691 14.6904 16.4044 17.9953 12.7756 17.9953C11.5559 17.9953 10.4117 17.3353 10.0186 16.5897C10.0186 16.5897 9.3634 19.1892 9.22228 19.693C8.9854 20.5646 8.51666 21.4311 8.08825 22.1112C9.12747 22.4176 10.2052 22.5737 11.2887 22.5747C17.5234 22.5747 22.5786 17.5217 22.5786 11.2899C22.5786 5.05802 17.5284 0 11.2938 0Z" fill="#2E2E2E"/>
</svg>
