<svg width="41" height="40" viewBox="0 0 41 40" fill="none" xmlns="http://www.w3.org/2000/svg">
<path d="M19.6599 1.35056C19.8399 0.422558 21.1679 0.422559 21.3479 1.35056L23.205 10.9235C23.3286 11.5605 24.0863 11.8363 24.5903 11.4278L32.1664 5.28817C32.9008 4.693 33.9181 5.54658 33.4595 6.37319L28.7287 14.9003C28.414 15.4676 28.8171 16.1659 29.4658 16.177L39.2159 16.3436C40.161 16.3597 40.3916 17.6675 39.509 18.0059L30.4039 21.4972C29.7981 21.7295 29.6581 22.5235 30.1479 22.949L37.5098 29.3438C38.2235 29.9637 37.5595 31.1137 36.6658 30.8056L27.4468 27.6275C26.8334 27.416 26.2157 27.9343 26.3175 28.5751L27.8465 38.2059C27.9947 39.1395 26.7469 39.5937 26.2603 38.7833L21.241 30.4228C20.907 29.8665 20.1008 29.8665 19.7668 30.4228L14.7475 38.7833C14.2609 39.5937 13.0131 39.1395 13.1613 38.2059L14.6903 28.5751C14.7921 27.9343 14.1744 27.416 13.561 27.6275L4.342 30.8056C3.44832 31.1137 2.78435 29.9637 3.498 29.3438L10.8599 22.949C11.3497 22.5235 11.2097 21.7295 10.6039 21.4972L1.49883 18.0059C0.61619 17.6675 0.846784 16.3597 1.79195 16.3436L11.542 16.177C12.1907 16.1659 12.5939 15.4676 12.2791 14.9003L7.54834 6.37319C7.08975 5.54658 8.10701 4.693 8.84142 5.28817L16.4175 11.4278C16.9216 11.8363 17.6792 11.5605 17.8028 10.9235L19.6599 1.35056Z" fill="#2E2E2E"/>
</svg>
