<svg width="23" height="22" viewBox="0 0 23 22" fill="none" xmlns="http://www.w3.org/2000/svg">
<path d="M15.7443 1.78308C16.9711 1.78661 18.1466 2.25747 19.0141 3.09282C19.8816 3.92818 20.3705 5.06015 20.3742 6.24151L20.3742 15.1574C20.3705 16.3388 19.8816 17.4707 19.0141 18.3061C18.1466 19.1415 16.9711 19.6123 15.7443 19.6158L6.48547 19.6158C5.25867 19.6123 4.08317 19.1415 3.21569 18.3061C2.3482 17.4707 1.85923 16.3388 1.85557 15.1574L1.85557 6.24151C1.85923 5.06015 2.3482 3.92818 3.21569 3.09282C4.08317 2.25747 5.25867 1.78661 6.48547 1.78308L15.7443 1.78308ZM15.7443 0L6.48547 0C2.92054 0 0.00390625 2.80861 0.00390625 6.24151L0.00390625 15.1574C0.00390625 18.5903 2.92054 21.3989 6.48547 21.3989L15.7443 21.3989C19.3092 21.3989 22.2259 18.5903 22.2259 15.1574L22.2259 6.24151C22.2259 2.80861 19.3092 0 15.7443 0Z" fill="#2E2E2E"/>
<path d="M17.1324 6.24176C16.8577 6.24176 16.5891 6.16332 16.3607 6.01636C16.1323 5.8694 15.9543 5.66052 15.8492 5.41614C15.7441 5.17176 15.7166 4.90284 15.7702 4.64341C15.8238 4.38397 15.956 4.14566 16.1503 3.95862C16.3445 3.77158 16.592 3.6442 16.8614 3.59259C17.1308 3.54099 17.4101 3.56747 17.6639 3.6687C17.9176 3.76993 18.1346 3.94135 18.2872 4.16129C18.4398 4.38123 18.5212 4.63981 18.5212 4.90433C18.5216 5.08007 18.486 5.25415 18.4163 5.41659C18.3467 5.57902 18.2444 5.72661 18.1153 5.85088C17.9863 5.97515 17.833 6.07365 17.6643 6.14072C17.4956 6.2078 17.3149 6.24214 17.1324 6.24176ZM11.1141 7.13306C11.8466 7.13306 12.5627 7.34224 13.1718 7.73415C13.7809 8.12606 14.2556 8.68309 14.536 9.33481C14.8163 9.98653 14.8897 10.7037 14.7467 11.3955C14.6038 12.0874 14.2511 12.7229 13.7331 13.2217C13.2151 13.7205 12.5551 14.0602 11.8367 14.1978C11.1182 14.3354 10.3735 14.2648 9.69669 13.9949C9.01991 13.7249 8.44145 13.2678 8.03447 12.6812C7.62749 12.0947 7.41026 11.4051 7.41026 10.6997C7.41131 9.75409 7.80187 8.84748 8.49624 8.17883C9.19062 7.51017 10.1321 7.13408 11.1141 7.13306ZM11.1141 5.34998C10.0153 5.34998 8.94122 5.66374 8.02762 6.25157C7.11403 6.83941 6.40196 7.67492 5.98148 8.65246C5.561 9.62999 5.45098 10.7056 5.66534 11.7434C5.8797 12.7811 6.40881 13.7344 7.18576 14.4825C7.96271 15.2307 8.9526 15.7402 10.0303 15.9466C11.1079 16.1531 12.2249 16.0471 13.2401 15.6422C14.2552 15.2373 15.1229 14.5516 15.7333 13.6719C16.3437 12.7921 16.6696 11.7578 16.6696 10.6997C16.6696 9.28087 16.0843 7.92015 15.0424 6.91688C14.0006 5.91361 12.5875 5.34998 11.1141 5.34998Z" fill="#2E2E2E"/>
</svg>
