<svg width="73" height="72" viewBox="0 0 73 72" fill="none" xmlns="http://www.w3.org/2000/svg">
<path d="M36.9892 7.85084L34.311 2L27.188 3.23249L26.6894 9.66417C24.5242 10.4857 22.4672 11.5655 20.5636 12.88L14.9365 9.57917L9.92188 14.6083L13.2982 20.275C11.0892 23.5261 9.58065 27.1967 8.86769 31.0558L2.40002 32.6142V39.6975L8.92468 41.3409C9.33921 43.5452 10.0233 45.6909 10.9618 47.73L6.60258 52.7733L10.6912 58.5958L16.9594 56.2017C18.5734 57.753 20.3555 59.1214 22.2732 60.2817L21.5893 66.9542L28.285 69.3908L32.0744 63.8517C33.6275 64.1161 35.1998 64.2535 36.7756 64.2625C37.4463 64.2772 38.1172 64.2489 38.7842 64.1775L42.0466 70L48.9559 68.1583L48.8704 61.5709C50.9378 60.5972 52.8797 59.3796 54.6543 57.9442L60.6091 60.7775L65.182 55.3517L61.3926 50.0675C62.5546 48.0728 63.4592 45.9405 64.0851 43.7208L70.4958 42.6583L71.1084 35.575L65.0111 33.4642C64.7706 31.1363 64.2394 28.8473 63.4298 26.65L68.0027 22.1875L64.427 16.0392L58.2727 17.725C56.7476 15.953 55.0056 14.3777 53.0872 13.0358L54.2554 6.80252L47.7877 3.79919L43.7276 8.70085C41.5245 8.14658 39.2617 7.86114 36.9892 7.85084ZM36.861 24.2417C39.2165 24.2417 41.5191 24.9363 43.4777 26.2376C45.4362 27.539 46.9627 29.3887 47.8641 31.5528C48.7655 33.7169 49.0014 36.0981 48.5418 38.3955C48.0823 40.6929 46.948 42.8032 45.2824 44.4595C43.6168 46.1159 41.4947 47.2438 39.1845 47.7008C36.8742 48.1577 34.4796 47.9232 32.3034 47.0268C30.1272 46.1304 28.2672 44.6125 26.9585 42.6648C25.6499 40.7172 24.9514 38.4274 24.9514 36.085C24.9514 34.5297 25.2594 32.9897 25.858 31.5528C26.4565 30.1159 27.3337 28.8103 28.4396 27.7105C29.5456 26.6107 30.8585 25.7384 32.3034 25.1432C33.7484 24.548 35.297 24.2417 36.861 24.2417Z" fill="#F2ED72" stroke="#2E2E2E" stroke-width="3" stroke-miterlimit="10"/>
<path d="M36.4001 54.4168C46.5713 54.4168 54.8167 46.1714 54.8167 36.0002C54.8167 25.8289 46.5713 17.5835 36.4001 17.5835C26.2288 17.5835 17.9834 25.8289 17.9834 36.0002C17.9834 46.1714 26.2288 54.4168 36.4001 54.4168Z" stroke="#2E2E2E" stroke-width="3" stroke-miterlimit="10"/>
</svg>
