<svg width="53" height="52" viewBox="0 0 53 52" fill="none" xmlns="http://www.w3.org/2000/svg">
<path d="M45.9 10.2981V38.4512C45.9003 38.7029 45.8421 38.9513 45.73 39.1766C45.6179 39.402 45.455 39.5982 45.2541 39.7499C45.0532 39.9015 44.8198 40.0045 44.5724 40.0505C44.3249 40.0966 44.0701 40.0845 43.8281 40.0153L8.07815 29.595C7.73843 29.4978 7.43964 29.2926 7.22705 29.0103C7.01446 28.7281 6.89965 28.3843 6.90003 28.0309V20.7184C6.89965 20.3651 7.01446 20.0212 7.22705 19.739C7.43964 19.4568 7.73843 19.2515 8.07815 19.1544L43.8281 8.73404C44.0701 8.66482 44.3249 8.65277 44.5724 8.69882C44.8198 8.74488 45.0532 8.84779 45.2541 8.99944C45.455 9.1511 45.6179 9.34734 45.73 9.57271C45.8421 9.79807 45.9003 10.0464 45.9 10.2981Z" stroke="#2E2E2E" stroke-width="3" stroke-linecap="round" stroke-linejoin="round"/>
<path d="M15.025 31.6267V39.0001C15.025 39.4311 15.1962 39.8444 15.501 40.1491C15.8057 40.4539 16.219 40.6251 16.65 40.6251H23.15C23.581 40.6251 23.9943 40.4539 24.2991 40.1491C24.6038 39.8444 24.775 39.4311 24.775 39.0001V14.2798" stroke="#2E2E2E" stroke-width="3" stroke-linecap="round" stroke-linejoin="round"/>
</svg>
