<svg width="112" height="112" viewBox="0 0 112 112" fill="none" xmlns="http://www.w3.org/2000/svg">
<path d="M94.1501 17.9457C73.3452 -3.12812 39.4196 -3.33943 18.3458 17.4655C-2.72809 38.2512 -2.93941 72.196 17.8655 93.2506C38.6704 114.305 72.596 114.536 93.6507 93.7309C114.724 72.9452 114.936 39.0196 94.1501 17.9457ZM71.2513 60.4392C68.581 68.8534 59.5906 73.5215 51.1764 70.8513C42.743 68.181 38.0941 59.1905 40.7643 50.7764C43.4346 42.3622 52.4251 37.6941 60.8584 40.3643C69.2534 43.0346 73.9215 52.025 71.2513 60.4392Z" fill="#E8E8E8" stroke="#2E2E2E" stroke-width="4" stroke-miterlimit="10"/>
<path d="M61.4621 38.4576L61.4646 38.4584C70.9106 41.463 76.1621 51.5766 73.1576 61.0442C70.1539 70.509 60.0411 75.7621 50.5726 72.758L61.4621 38.4576ZM61.4621 38.4576C51.9765 35.4542 41.8623 40.7046 38.858 50.1714C35.8539 59.6375 41.0843 69.7533 50.572 72.7578L61.4621 38.4576ZM23.9382 87.2548L23.9375 87.2541C6.44435 69.5402 6.62899 41.0117 24.3416 23.5382C42.0556 6.06334 70.5852 6.248 88.0589 23.9424C105.552 41.6562 105.367 70.1847 87.6548 87.6582L87.654 87.659C69.9402 105.152 41.4117 104.967 23.9382 87.2548ZM50.6612 60.861L50.6576 60.8574C47.7488 57.9183 47.7761 53.154 50.7178 50.2405C53.6786 47.327 58.4241 47.3595 61.3353 50.2972C64.2546 53.2814 64.215 58.0306 61.2765 60.9388C58.3374 63.8476 53.5744 63.8197 50.6612 60.861Z" fill="#E8E8E8" stroke="#2E2E2E" stroke-width="4"/>
<path d="M22.9371 22.1144C17.5773 27.3973 13.8121 33.6599 11.5261 40.3259L38.2094 49.4893C39.1122 46.819 40.6299 44.3217 42.7622 42.2085C44.9138 40.0954 47.4304 38.6162 50.1006 37.7325L41.3022 10.934C34.617 13.1432 28.2968 16.8316 22.9371 22.1144Z" fill="#F9385B"/>
<path d="M89.0594 89.082C94.4191 83.7992 98.1843 77.5365 100.47 70.8705L73.7871 61.7072C72.8842 64.3774 71.3665 66.8748 69.215 68.9879C67.0826 71.1011 64.5468 72.5803 61.8766 73.4639L70.6942 100.262C77.3794 98.0533 83.6996 94.3649 89.0594 89.082Z" fill="#F9385B"/>
<path d="M61.6845 37.6557C62.28 37.8478 62.8563 38.0591 63.4326 38.3089L74.5747 12.3748C73.1723 11.7601 71.7123 11.2222 70.2139 10.7419C68.7347 10.2809 67.2171 9.87744 65.7187 9.57007L59.8787 37.1947C60.4934 37.3099 61.089 37.4636 61.6845 37.6557Z" fill="#F9385B"/>
</svg>
