<svg width="125" height="28" viewBox="0 0 125 28" fill="none" xmlns="http://www.w3.org/2000/svg">
<path d="M63.5837 3.44277L66.954 10.1742L74.4179 11.2212L69.0515 16.5072L70.3639 23.9289L63.6774 20.4621L57.0271 23.9986L58.263 16.5642L52.8408 11.3353L60.29 10.2104L63.5837 3.44277Z" fill="black"/>
<path d="M63.5837 3.44277L66.954 10.1742L74.4179 11.2212L69.0515 16.5072L70.3639 23.9289L63.6774 20.4621L57.0271 23.9986L58.263 16.5642L52.8408 11.3353L60.29 10.2104L63.5837 3.44277Z" stroke="black" stroke-width="0.5785" stroke-miterlimit="10"/>
<path d="M62.9999 2.3314L66.3676 9.07147L73.8314 10.1184L68.4651 15.4044L69.7775 22.8261L63.085 19.348L56.4321 22.8932L57.668 15.4588L52.2457 10.2299L59.7036 9.10764L62.9999 2.3314Z" fill="#FFE600"/>
<path d="M62.9999 2.3314L66.3676 9.07147L73.8314 10.1184L68.4651 15.4044L69.7775 22.8261L63.085 19.348L56.4321 22.8932L57.668 15.4588L52.2457 10.2299L59.7036 9.10764L62.9999 2.3314Z" stroke="black" stroke-width="0.5785" stroke-miterlimit="10"/>
<path d="M112.248 3.44277L115.618 10.1742L123.082 11.2212L117.716 16.5072L119.028 23.9289L112.342 20.4621L105.691 23.9986L106.927 16.5642L101.505 11.3353L108.954 10.2104L112.248 3.44277Z" fill="black"/>
<path d="M112.248 3.44277L115.618 10.1742L123.082 11.2212L117.716 16.5072L119.028 23.9289L112.342 20.4621L105.691 23.9986L106.927 16.5642L101.505 11.3353L108.954 10.2104L112.248 3.44277Z" stroke="black" stroke-width="0.5785" stroke-miterlimit="10"/>
<path d="M111.664 2.3314L115.032 9.07147L122.496 10.1184L117.129 15.4044L118.442 22.8261L111.749 19.348L105.096 22.8932L106.332 15.4588L100.91 10.2299L108.368 9.10764L111.664 2.3314Z" fill="#FFE600"/>
<path d="M111.664 2.3314L115.032 9.07147L122.496 10.1184L117.129 15.4044L118.442 22.8261L111.749 19.348L105.096 22.8932L106.332 15.4588L100.91 10.2299L108.368 9.10764L111.664 2.3314Z" stroke="black" stroke-width="0.5785" stroke-miterlimit="10"/>
<path d="M39.2515 3.44277L42.6219 10.1742L50.0857 11.2212L44.7194 16.5072L46.0317 23.9289L39.3453 20.4621L32.695 23.9986L33.9308 16.5642L28.5086 11.3353L35.9578 10.2104L39.2515 3.44277Z" fill="black"/>
<path d="M39.2515 3.44277L42.6219 10.1742L50.0857 11.2212L44.7194 16.5072L46.0317 23.9289L39.3453 20.4621L32.695 23.9986L33.9308 16.5642L28.5086 11.3353L35.9578 10.2104L39.2515 3.44277Z" stroke="black" stroke-width="0.5785" stroke-miterlimit="10"/>
<path d="M38.6677 2.3314L42.0355 9.07147L49.4993 10.1184L44.133 15.4044L45.4453 22.8261L38.7529 19.348L32.0999 22.8932L33.3358 15.4588L27.9136 10.2299L35.3714 9.10764L38.6677 2.3314Z" fill="#FFE600"/>
<path d="M38.6677 2.3314L42.0355 9.07147L49.4993 10.1184L44.133 15.4044L45.4453 22.8261L38.7529 19.348L32.0999 22.8932L33.3358 15.4588L27.9136 10.2299L35.3714 9.10764L38.6677 2.3314Z" stroke="black" stroke-width="0.5785" stroke-miterlimit="10"/>
<path d="M15.1784 3.44277L18.5488 10.1742L26.0126 11.2212L20.6463 16.5072L21.9586 23.9289L15.2722 20.4621L8.62188 23.9986L9.85774 16.5642L4.43553 11.3353L11.8847 10.2104L15.1784 3.44277Z" fill="black"/>
<path d="M15.1784 3.44277L18.5488 10.1742L26.0126 11.2212L20.6463 16.5072L21.9586 23.9289L15.2722 20.4621L8.62188 23.9986L9.85774 16.5642L4.43553 11.3353L11.8847 10.2104L15.1784 3.44277Z" stroke="black" stroke-width="0.5785" stroke-miterlimit="10"/>
<path d="M14.5946 2.3314L17.9624 9.07147L25.4262 10.1184L20.0599 15.4044L21.3722 22.8261L14.6798 19.348L8.02684 22.8932L9.2627 15.4588L3.84048 10.2299L11.2983 9.10764L14.5946 2.3314Z" fill="#FFE600"/>
<path d="M14.5946 2.3314L17.9624 9.07147L25.4262 10.1184L20.0599 15.4044L21.3722 22.8261L14.6798 19.348L8.02684 22.8932L9.2627 15.4588L3.84048 10.2299L11.2983 9.10764L14.5946 2.3314Z" stroke="black" stroke-width="0.5785" stroke-miterlimit="10"/>
<path d="M87.9158 3.44277L91.2862 10.1742L98.75 11.2212L93.3837 16.5072L94.696 23.9289L88.0096 20.4621L81.3593 23.9986L82.5951 16.5642L77.1729 11.3353L84.6221 10.2104L87.9158 3.44277Z" fill="black"/>
<path d="M87.9158 3.44277L91.2862 10.1742L98.75 11.2212L93.3837 16.5072L94.6961 23.9289L88.0096 20.4621L81.3593 23.9986L82.5951 16.5642L77.1729 11.3353L84.6221 10.2104L87.9158 3.44277Z" stroke="black" stroke-width="0.5785" stroke-miterlimit="10"/>
<path d="M87.3321 2.3314L90.6998 9.07147L98.1636 10.1184L92.7973 15.4044L94.1096 22.8261L87.4172 19.348L80.7642 22.8932L82.0001 15.4588L76.5779 10.2299L84.0357 9.10764L87.3321 2.3314Z" fill="#FFE600"/>
<path d="M87.3321 2.3314L90.6998 9.07147L98.1636 10.1184L92.7973 15.4044L94.1096 22.8261L87.4172 19.348L80.7642 22.8932L82.0001 15.4588L76.5779 10.2299L84.0357 9.10764L87.3321 2.3314Z" stroke="black" stroke-width="0.5785" stroke-miterlimit="10"/>
</svg>
