<svg width="93" height="93" viewBox="0 0 93 93" fill="none" xmlns="http://www.w3.org/2000/svg">
<g clip-path="url(#clip0_64_252)">
<path d="M31.4794 54.4827C39.2012 52.4136 43.7813 44.4672 41.7091 36.7338C39.637 29.0005 31.6973 24.4087 23.9755 26.4777C16.2536 28.5468 11.6736 36.4932 13.7457 44.2266C15.8178 51.96 23.7575 56.5518 31.4794 54.4827Z" fill="#FCEA2B" stroke="#FCEA2B" stroke-width="2" stroke-miterlimit="10"/>
<path d="M29.8749 54.9868C27.8572 60.2386 24.0328 63.1658 17.9538 64.7947C20.3455 62.0732 22.2389 57.492 22.5684 54.2009L29.8749 54.9868Z" fill="#FCEA2B"/>
<path d="M68.0377 61.2349C75.7595 59.1658 80.342 51.2286 78.273 43.5068C76.2039 35.7849 68.2668 31.2024 60.5449 33.2714C52.823 35.3405 48.2405 43.2776 50.3096 50.9995C52.3786 58.7214 60.3158 63.3039 68.0377 61.2349Z" fill="#FCEA2B" stroke="#FCEA2B" stroke-width="2" stroke-miterlimit="10"/>
<path d="M69.6904 60.9109C74.0637 64.4502 78.8394 65.0731 84.9184 63.4443C81.4864 62.2833 77.556 59.2625 75.6251 56.5771L69.6904 60.9109Z" fill="#FCEA2B"/>
<path d="M21.1726 44.3859C22.2917 44.0861 22.9558 42.9358 22.656 41.8166C22.3561 40.6975 21.2058 40.0334 20.0867 40.3333C18.9676 40.6331 18.3034 41.7834 18.6033 42.9026C18.9032 44.0217 20.0535 44.6858 21.1726 44.3859Z" fill="black"/>
<path d="M28.2647 42.4855C29.3839 42.1857 30.048 41.0354 29.7481 39.9163C29.4483 38.7971 28.2979 38.133 27.1788 38.4329C26.0597 38.7327 25.3956 39.8831 25.6955 41.0022C25.9953 42.1213 27.1456 42.7854 28.2647 42.4855Z" fill="black"/>
<path d="M35.3569 40.5853C36.476 40.2854 37.1402 39.1351 36.8403 38.016C36.5404 36.8969 35.3901 36.2327 34.271 36.5326C33.1519 36.8325 32.4877 37.9828 32.7876 39.1019C33.0875 40.221 34.2378 40.8851 35.3569 40.5853Z" fill="black"/>
<path d="M22.5685 54.2009C22.2389 57.492 20.3455 62.0732 17.9538 64.7947C24.0328 63.1658 27.8572 60.2386 29.8749 54.9868" stroke="black" stroke-width="2" stroke-miterlimit="10" stroke-linecap="round" stroke-linejoin="round"/>
<path d="M33.7774 53.8397C40.22 50.9334 43.7949 43.7075 41.9061 36.6585C39.8071 28.8247 31.7549 24.1758 23.9211 26.2749C16.0873 28.3739 11.4384 36.4261 13.5374 44.2599C14.4425 47.6375 16.4541 50.423 19.0778 52.3308" stroke="black" stroke-width="2" stroke-miterlimit="10" stroke-linecap="round"/>
<path d="M71.9265 47.3791C73.0456 47.0792 73.7097 45.9289 73.4098 44.8098C73.11 43.6907 71.9597 43.0266 70.8405 43.3264C69.7214 43.6263 69.0573 44.7766 69.3572 45.8957C69.657 47.0148 70.8073 47.679 71.9265 47.3791Z" fill="black"/>
<path d="M64.8343 49.2795C65.9534 48.9796 66.6175 47.8293 66.3177 46.7102C66.0178 45.5911 64.8675 44.927 63.7484 45.2268C62.6293 45.5267 61.9651 46.677 62.265 47.7961C62.5649 48.9152 63.7152 49.5794 64.8343 49.2795Z" fill="black"/>
<path d="M57.7421 51.1798C58.8612 50.8799 59.5254 49.7296 59.2255 48.6105C58.9256 47.4914 57.7753 46.8272 56.6562 47.1271C55.5371 47.427 54.873 48.5773 55.1728 49.6964C55.4727 50.8155 56.623 51.4796 57.7421 51.1798Z" fill="black"/>
<path d="M75.6251 56.5772C77.556 59.2626 81.4864 62.2834 84.9184 63.4444C78.8394 65.0732 74.0637 64.4504 69.6904 60.9111" stroke="black" stroke-width="2" stroke-miterlimit="10" stroke-linecap="round" stroke-linejoin="round"/>
<path d="M65.7372 61.8688C58.7047 62.5732 51.9957 58.1029 50.107 51.0538C48.0079 43.22 52.6568 35.1679 60.4906 33.0688C68.3244 30.9698 76.3766 35.6187 78.4756 43.4525C79.3807 46.8301 79.0312 50.2482 77.713 53.2123" stroke="black" stroke-width="2" stroke-miterlimit="10" stroke-linecap="round"/>
</g>
<defs>
<clipPath id="clip0_64_252">
<rect width="75.5214" height="75.5214" fill="white" transform="translate(0.400024 19.5464) rotate(-15)"/>
</clipPath>
</defs>
</svg>
