<svg width="130" height="121" viewBox="0 0 130 121" fill="none" xmlns="http://www.w3.org/2000/svg">
<path d="M89.6692 5.02018L5.00304 53.9022C3.56817 54.7306 3.07654 56.5654 3.90497 58.0003L34.0021 110.13C34.8306 111.565 36.6653 112.057 38.1002 111.228L71.6104 91.8811C72.2994 91.4832 73.1183 91.3754 73.8868 91.5814L84.4229 94.4045C84.6896 94.476 84.9638 94.3177 85.0353 94.051L87.8584 83.5149C88.0643 82.7463 88.5671 82.0911 89.2562 81.6933L122.766 62.3461C124.201 61.5177 124.693 59.683 123.864 58.2481L93.7673 6.11826C92.9389 4.68339 91.1041 4.19176 89.6692 5.02018Z" fill="#4B91FF" stroke="#2E2E2E" stroke-width="3" stroke-linecap="round"/>
<path d="M111.965 54.5436L83.4152 5.0931C82.7249 3.89737 81.1959 3.48768 80.0002 4.17804L53.9866 19.197C53.1827 19.6611 52.5961 20.4256 52.3558 21.3222L49.2751 32.8195L37.7778 29.7388C36.8812 29.4986 35.9258 29.6244 35.1219 30.0885L9.10833 45.1075C7.9126 45.7978 7.50292 47.3268 8.19327 48.5225L36.7435 97.973C37.4339 99.1688 38.9629 99.5784 40.1586 98.8881L68.1912 82.7035C68.5582 82.4916 68.9976 82.4448 69.401 82.5747L77.8622 85.2994C78.9884 85.662 80.1814 84.9732 80.4304 83.8166L82.3014 75.1266C82.3906 74.7124 82.6509 74.3552 83.0178 74.1433L111.05 57.9587C112.246 57.2683 112.656 55.7393 111.965 54.5436Z" fill="white" stroke="#2E2E2E" stroke-width="3" stroke-linecap="round"/>
<mask id="mask0_63_200" style="mask-type:alpha" maskUnits="userSpaceOnUse" x="9" y="5" width="102" height="93">
<path d="M110.666 55.2936L82.1162 5.8431C81.8401 5.36481 81.2285 5.20093 80.7502 5.47707L54.7366 20.496C54.2772 20.7613 53.942 21.1981 53.8047 21.7105L50.4652 34.1737C50.3937 34.4404 50.1196 34.5987 49.8528 34.5272L37.3896 31.1877C36.8772 31.0504 36.3313 31.1223 35.8719 31.3875L9.85833 46.4065C9.38004 46.6826 9.21617 47.2942 9.49231 47.7725L38.0426 97.223C38.3187 97.7013 38.9303 97.8652 39.4086 97.589L67.4412 81.4044C68.1751 80.9807 69.054 80.8871 69.8607 81.1469L78.322 83.8716C78.6035 83.9622 78.9018 83.79 78.9641 83.5009L80.835 74.8109C81.0134 73.9824 81.5339 73.268 82.2678 72.8442L110.3 56.6596C110.779 56.3835 110.943 55.7719 110.666 55.2936Z" fill="white"/>
</mask>
<g mask="url(#mask0_63_200)">
<path d="M53.3818 20.5268L81.2899 4.414L111.606 56.9236L82.7834 73.5646L78.8137 85.0174L49.0059 33.3871L53.3818 20.5268Z" fill="#E5E2D7"/>
</g>
<rect x="20.2723" y="52.4547" width="29.6267" height="6.70871" transform="rotate(-30 20.2723 52.4547)" fill="#ECECEC"/>
<rect x="26.5074" y="63.2543" width="29.6267" height="6.70871" transform="rotate(-30 26.5074 63.2543)" fill="#ECECEC"/>
<rect x="32.7433" y="74.0551" width="29.6267" height="6.70871" transform="rotate(-30 32.7433 74.0551)" fill="#ECECEC"/>
<rect x="38.9791" y="84.8557" width="29.6267" height="6.70871" transform="rotate(-30 38.9791 84.8557)" fill="#ECECEC"/>
<rect x="54.7926" y="32.5244" width="29.6267" height="6.70871" transform="rotate(-30 54.7926 32.5244)" fill="#CAC8BE"/>
<rect x="61.0264" y="43.325" width="29.6267" height="6.70871" transform="rotate(-30 61.0264 43.325)" fill="#CAC8BE"/>
<rect x="67.2622" y="54.1256" width="29.6267" height="6.70871" transform="rotate(-30 67.2622 54.1256)" fill="#CAC8BE"/>
<rect x="73.498" y="64.9263" width="29.6267" height="6.70871" transform="rotate(-30 73.498 64.9263)" fill="#CAC8BE"/>
</svg>
