<svg width="67" height="61" viewBox="0 0 67 61" fill="none" xmlns="http://www.w3.org/2000/svg">
<path d="M58.049 6.70897C50.789 1.81897 40.939 3.72897 36.049 10.989L32.849 15.729L28.109 12.529C20.849 7.63897 10.999 9.54897 6.10899 16.809C1.21899 24.069 3.12899 33.919 10.389 38.809L15.129 42.009L41.409 59.729L59.129 33.449L62.329 28.709C67.219 21.459 65.309 11.609 58.049 6.70897Z" fill="black" stroke="black" stroke-width="2" stroke-miterlimit="10" stroke-linecap="round" stroke-linejoin="round"/>
<path d="M56.049 3.70897C48.789 -1.18103 38.939 0.728969 34.049 7.98897L30.849 12.729L26.109 9.52897C18.849 4.63897 8.99899 6.54897 4.10899 13.809C-0.781006 21.069 1.12899 30.919 8.38899 35.809L13.129 39.009L39.409 56.729L57.129 30.449L60.329 25.709C65.219 18.459 63.309 8.60897 56.049 3.70897Z" fill="#F95C46" stroke="black" stroke-width="2" stroke-miterlimit="10" stroke-linecap="round" stroke-linejoin="round"/>
</svg>
