<svg width="206" height="205" viewBox="0 0 206 205" fill="none" xmlns="http://www.w3.org/2000/svg">
<circle cx="102.878" cy="103.043" r="61.453" transform="rotate(15 102.878 103.043)" fill="white"/>
<mask id="path-2-inside-1_417_488" fill="white">
<path d="M183.75 123.897C171.812 168.448 126.019 194.887 81.4674 182.949C36.916 171.012 10.4773 125.219 22.4148 80.6674C34.3523 36.116 80.1455 9.67725 124.697 21.6148C169.248 33.5523 195.687 79.3455 183.75 123.897ZM49.255 87.8592C41.2894 117.587 58.9313 148.144 88.6592 156.109C118.387 164.075 148.944 146.433 156.909 116.705C164.875 86.9771 147.233 56.4205 117.505 48.455C87.7772 40.4894 57.2206 58.1313 49.255 87.8592Z"/>
</mask>
<path d="M183.75 123.897C171.812 168.448 126.019 194.887 81.4674 182.949C36.916 171.012 10.4773 125.219 22.4148 80.6674C34.3523 36.116 80.1455 9.67725 124.697 21.6148C169.248 33.5523 195.687 79.3455 183.75 123.897ZM49.255 87.8592C41.2894 117.587 58.9313 148.144 88.6592 156.109C118.387 164.075 148.944 146.433 156.909 116.705C164.875 86.9771 147.233 56.4205 117.505 48.455C87.7772 40.4894 57.2206 58.1313 49.255 87.8592Z" fill="white" stroke="#2E2E2E" stroke-width="4" mask="url(#path-2-inside-1_417_488)"/>
<path d="M121.154 40.957C121.025 41.0133 120.823 41.095 120.509 41.1695C120.195 41.2441 119.839 41.3073 119.404 41.3268C118.969 41.3463 118.53 41.2967 118.039 41.1878C117.295 41.0111 116.67 40.7301 116.141 40.3392C115.613 39.9484 115.192 39.4955 114.899 38.9863C114.59 38.4503 114.398 37.9003 114.313 37.2883C114.229 36.6764 114.261 36.0503 114.41 35.4103C114.576 34.7068 114.815 34.0682 115.169 33.5058C115.517 32.9646 115.954 32.5151 116.453 32.1727C116.952 31.8304 117.512 31.5953 118.129 31.4885C118.745 31.3817 119.396 31.3976 120.077 31.5573C120.695 31.7001 121.247 31.9162 121.693 32.1942C122.138 32.4722 122.494 32.7488 122.765 33.0028L121.635 34.6038C121.464 34.3993 121.208 34.1721 120.895 33.9069C120.576 33.6627 120.198 33.4708 119.728 33.3676C119.363 33.2926 119.003 33.2868 118.642 33.3711C118.28 33.4555 117.949 33.5935 117.643 33.8062C117.337 34.019 117.057 34.3064 116.834 34.632C116.601 34.9096 116.43 35.2945 116.338 35.723C116.24 36.1728 116.217 36.5972 116.263 37.0174C116.314 37.4164 116.44 37.7902 116.625 38.1117C116.81 38.4333 117.055 38.7028 117.379 38.9258C117.704 39.1487 118.067 39.3139 118.494 39.4058C119.006 39.5203 119.456 39.5277 119.839 39.4489C120.222 39.3702 120.547 39.2534 120.767 39.1083L121.154 40.957Z" fill="#2E2E2E"/>
<path d="M128.876 39.3088C129.172 38.7083 129.557 38.1995 130.052 37.7881C130.547 37.3767 131.087 37.0456 131.706 36.8486C132.308 36.6248 132.94 36.5448 133.592 36.5607C134.237 36.5977 134.876 36.7462 135.49 37.0694C136.089 37.3659 136.591 37.7723 137.022 38.2731C137.432 38.7682 137.756 39.331 137.951 39.9501C138.168 40.5749 138.248 41.208 138.21 41.8552C138.172 42.5023 138.008 43.1156 137.711 43.716C137.409 44.3377 137.003 44.8408 136.508 45.2522C136.014 45.6636 135.452 45.989 134.855 46.1917C134.237 46.3887 133.626 46.4744 132.98 46.4373C132.334 46.4003 131.722 46.2364 131.102 45.9343C130.483 45.6321 129.981 45.2258 129.565 44.7518C129.15 44.2778 128.826 43.715 128.624 43.117C128.423 42.5191 128.343 41.8859 128.381 41.2388C128.382 40.5591 128.552 39.9248 128.876 39.3088ZM130.63 40.1868C130.438 40.566 130.33 40.9678 130.313 41.371C130.295 41.7743 130.326 42.1677 130.451 42.5414C130.577 42.9151 130.757 43.2579 131.017 43.5541C131.276 43.8504 131.595 44.0945 131.974 44.2865C132.331 44.4728 132.71 44.5746 133.113 44.5917C133.494 44.6032 133.871 44.5457 134.223 44.4133C134.575 44.281 134.902 44.0739 135.225 43.7978C135.521 43.5371 135.77 43.196 135.962 42.8168C136.16 42.4165 136.268 42.0147 136.306 41.6171C136.324 41.2139 136.294 40.8205 136.189 40.4524C136.084 40.0843 135.905 39.7416 135.645 39.4454C135.385 39.1491 135.087 38.9106 134.709 38.7186C134.331 38.5267 133.951 38.4249 133.57 38.4134C133.189 38.4019 132.79 38.4538 132.438 38.5862C132.065 38.7128 131.738 38.9199 131.437 39.2017C131.072 39.4666 130.828 39.7865 130.63 40.1868Z" fill="#2E2E2E"/>
<path d="M147.296 57.7304L146.126 47.9203L146.349 48.524L142.498 53.0224L141.052 51.7511L147.633 44.1537L147.685 44.213L148.756 53.8834L148.552 53.4659L152.467 48.8942L153.919 50.1443L147.317 57.736L147.296 57.7304Z" fill="#2E2E2E"/>
<path d="M157.184 68.3351C157.058 68.3012 156.837 68.1967 156.559 68.0541C156.28 67.9116 155.956 67.6886 155.642 67.4233C155.308 67.1524 155.012 66.8237 154.717 66.4048C154.299 65.7714 154.013 65.1509 153.871 64.5008C153.728 63.8507 153.733 63.2401 153.85 62.6367C153.966 62.0333 154.204 61.485 154.547 60.9649C154.889 60.4448 155.326 59.9953 155.858 59.6163C156.448 59.1852 157.068 58.8979 157.701 58.7277C158.334 58.5575 158.934 58.5141 159.547 58.5878C160.161 58.6615 160.713 58.8776 161.259 59.205C161.804 59.5324 162.273 59.9755 162.66 60.5552C163.038 61.087 163.283 61.606 163.444 62.1024C163.605 62.5988 163.666 63.0458 163.681 63.4125L161.776 63.8541C161.818 63.6158 161.792 63.2915 161.719 62.8868C161.647 62.4821 161.479 62.097 161.22 61.7105C161.008 61.4044 160.732 61.1716 160.422 60.9754C160.108 60.8004 159.755 60.6832 159.385 60.6294C159.015 60.5756 158.622 60.6064 158.234 60.7062C157.845 60.8061 157.482 60.9807 157.122 61.2245C156.736 61.4837 156.429 61.7866 156.201 62.1334C155.957 62.4533 155.812 62.8226 155.737 63.1878C155.662 63.5529 155.656 63.9139 155.755 64.3031C155.833 64.6866 156.007 65.0505 156.271 65.4159C156.565 65.8348 156.888 66.148 157.24 66.3555C157.591 66.563 157.896 66.6901 158.155 66.7367L157.184 68.3351Z" fill="#2E2E2E"/>
<path d="M168.604 70.9419L171.159 77.0205L169.477 77.7259L167.671 73.4117L165.76 74.2142L167.358 78.0419L165.671 78.7684L164.074 74.9408L162.163 75.7433L164.056 80.2395L162.374 80.9449L159.754 74.69L168.604 70.9419Z" fill="#2E2E2E"/>
<path d="M174.211 88.5814C174.361 89.3697 174.339 90.0436 174.181 90.6357C174.022 91.2278 173.711 91.7113 173.297 92.0762C172.883 92.4412 172.338 92.7031 171.673 92.8197C171.291 92.8985 170.883 92.9025 170.486 92.8642C170.068 92.8202 169.694 92.6973 169.316 92.5053C168.959 92.319 168.63 92.0269 168.351 91.6348C168.071 91.2426 167.889 90.7406 167.762 90.1173L167.51 88.7804L164.512 89.337L164.179 87.4573L173.673 85.6948L174.211 88.5814ZM169.596 89.7701C169.655 90.0578 169.731 90.282 169.865 90.4541C170 90.6262 170.146 90.756 170.33 90.828C170.488 90.9155 170.678 90.9664 170.837 90.9637C171.011 90.9878 171.149 90.9794 171.272 90.9442C171.367 90.9245 171.49 90.8893 171.645 90.8175C171.794 90.7669 171.954 90.6739 172.1 90.5541C172.245 90.4344 172.359 90.261 172.437 90.0552C172.515 89.8494 172.519 89.5787 172.472 89.2487L172.22 87.9119L169.365 88.4389L169.596 89.7701Z" fill="#2E2E2E"/>
<path d="M175.453 100.065L175.292 106.572L173.449 106.531L173.51 104.191L165.693 104L165.732 102.084L173.549 102.275L173.609 100.024L175.453 100.065Z" fill="#2E2E2E"/>
<path d="M147.024 151.399L142.751 150.299L144.377 148.786L148.667 149.822L147.024 151.399ZM152.594 154.319C152.148 154.721 151.702 155.032 151.259 155.253C150.815 155.475 150.358 155.579 149.95 155.583C149.521 155.581 149.114 155.495 148.73 155.324C148.346 155.153 147.97 154.871 147.637 154.51C147.377 154.213 147.144 153.902 146.976 153.517C146.802 153.153 146.682 152.758 146.663 152.322C146.639 151.908 146.71 151.473 146.919 151.031C147.107 150.583 147.427 150.147 147.906 149.709L148.902 148.775L146.817 146.516L148.207 145.211L154.765 152.295L152.594 154.319ZM149.128 151.056C148.918 151.249 148.771 151.459 148.699 151.644C148.627 151.828 148.591 152.046 148.609 152.232C148.627 152.418 148.672 152.588 148.749 152.722C148.821 152.878 148.903 152.99 149.007 153.109C149.075 153.195 149.19 153.271 149.321 153.374C149.451 153.477 149.614 153.544 149.798 153.616C149.988 153.666 150.19 153.675 150.408 153.62C150.626 153.565 150.867 153.426 151.109 153.196L152.106 152.262L150.124 150.122L149.128 151.056Z" fill="#2E2E2E"/>
<path d="M142.441 162.342L136.756 165.669L135.825 164.082L139.871 161.721L138.832 159.947L135.261 162.05L134.33 160.463L137.901 158.36L136.846 156.559L132.638 159.012L131.707 157.426L137.552 154.006L142.441 162.342Z" fill="#2E2E2E"/>
<path d="M122.965 168.704C123.377 168.769 123.795 168.813 124.176 168.825C124.584 168.821 124.934 168.779 125.254 168.683C125.648 168.562 125.927 168.365 126.1 168.139C126.274 167.914 126.305 167.628 126.21 167.308C126.135 167.083 125.994 166.932 125.752 166.822C125.511 166.712 125.263 166.623 124.935 166.581C124.629 166.544 124.301 166.501 123.983 166.507C123.692 166.497 123.385 166.46 123.078 166.423C122.777 166.365 122.482 166.286 122.204 166.143C121.925 166.001 121.679 165.821 121.456 165.558C121.233 165.294 121.053 164.951 120.902 164.503C120.757 164.033 120.723 163.571 120.832 163.079C120.935 162.608 121.192 162.155 121.57 161.758C121.948 161.36 122.483 161.051 123.155 160.823C123.501 160.711 123.863 160.627 124.261 160.575C124.638 160.517 125.046 160.513 125.422 160.546C125.819 160.584 126.21 160.644 126.605 160.772L126.268 162.45C126 162.355 125.72 162.303 125.434 162.272C125.149 162.241 124.857 162.231 124.582 162.247C124.306 162.264 124.067 162.313 123.843 162.389C123.619 162.465 123.41 162.568 123.217 162.698C123.024 162.827 122.868 162.99 122.769 163.19C122.67 163.39 122.677 163.618 122.762 163.89C122.828 164.067 122.947 164.212 123.099 164.321C123.272 164.435 123.477 164.513 123.709 164.575C123.941 164.637 124.206 164.663 124.476 164.667C124.788 164.683 125.122 164.704 125.471 164.752C125.819 164.8 126.163 164.87 126.473 164.976C126.805 165.087 127.093 165.278 127.364 165.532C127.636 165.786 127.836 166.134 127.972 166.556C128.148 167.079 128.192 167.589 128.068 168.055C127.964 168.525 127.74 168.941 127.368 169.317C127.016 169.699 126.556 169.984 126.001 170.198C125.255 170.451 124.638 170.558 124.125 170.534C123.611 170.509 123.13 170.449 122.687 170.33L122.965 168.704Z" fill="#2E2E2E"/>
<path d="M114.63 172.977L108.1 173.72L107.888 171.895L112.528 171.371L112.309 169.318L108.184 169.776L107.972 167.952L112.097 167.493L111.863 165.413L107.037 165.956L106.825 164.131L113.541 163.37L114.63 172.977Z" fill="#2E2E2E"/>
<path d="M101.17 164.225L95.7697 173.748L95.6586 173.741L92.4229 163.287L94.6174 163.535L96.6093 170.868L95.1333 171.651L99.3189 164.047L101.17 164.225ZM97.8355 167.389L94.9586 167.071L94.479 165.401L98.6093 165.851L97.8355 167.389Z" fill="#2E2E2E"/>
<path d="M80.4299 163.745L79.3655 159.448L81.4565 160.167L82.5744 164.433L80.4299 163.745ZM80.5059 170.043C79.9265 169.843 79.4485 169.601 79.0509 169.313C78.6532 169.025 78.3626 168.676 78.1465 168.3C77.9305 167.925 77.8102 167.53 77.7913 167.095C77.7724 166.659 77.8224 166.219 77.995 165.744C78.118 165.369 78.3044 165.011 78.5484 164.691C78.7981 164.35 79.0729 164.084 79.4476 163.867C79.8012 163.644 80.2221 163.508 80.7048 163.478C81.1931 163.428 81.7318 163.527 82.338 163.712L83.6232 164.147L84.6063 161.237L86.4077 161.856L83.2971 171.018L80.5059 170.043ZM81.7411 165.433C81.4725 165.339 81.2291 165.319 81.0223 165.331C80.8097 165.365 80.6337 165.431 80.4732 165.524C80.3337 165.623 80.2096 165.748 80.101 165.9C79.9981 166.031 79.9373 166.174 79.8822 166.295C79.8539 166.401 79.8199 166.528 79.8013 166.681C79.7828 166.835 79.7796 167.015 79.8187 167.207C79.8577 167.399 79.9446 167.581 80.1005 167.759C80.2564 167.936 80.4925 168.068 80.8033 168.174L82.0885 168.609L83.032 165.847L81.7411 165.433Z" fill="#2E2E2E"/>
<path d="M67.3368 153.709C67.4747 153.7 67.7027 153.693 68.015 153.709C68.3274 153.725 68.6916 153.8 69.1136 153.913C69.5355 154.026 69.9347 154.223 70.3592 154.496C70.993 154.915 71.5043 155.369 71.8819 155.901C72.2594 156.433 72.5145 157 72.626 157.596C72.7375 158.193 72.7589 158.788 72.6368 159.412C72.5203 160.016 72.2927 160.612 71.9653 161.159C71.5941 161.785 71.1401 162.298 70.6244 162.703C70.1087 163.109 69.5791 163.398 68.9935 163.558C68.4079 163.719 67.8084 163.762 67.1796 163.662C66.5509 163.561 65.9504 163.355 65.3475 162.989C64.8021 162.662 64.3638 162.272 64.0212 161.863C63.6786 161.454 63.4415 161.073 63.2775 160.757L64.8498 159.615C64.9408 159.866 65.1105 160.161 65.3322 160.515C65.5596 160.848 65.8615 161.155 66.2494 161.395C66.5586 161.591 66.9116 161.709 67.2605 161.757C67.6304 161.811 68.0019 161.774 68.3694 161.669C68.7368 161.563 69.079 161.383 69.3904 161.149C69.7018 160.915 69.988 160.606 70.2011 160.233C70.441 159.844 70.5965 159.432 70.6774 159.046C70.764 158.638 70.7759 158.256 70.6922 157.894C70.6084 157.532 70.4768 157.179 70.2437 156.867C70.0107 156.555 69.7185 156.296 69.3306 156.056C68.8851 155.778 68.4745 155.623 68.0778 155.584C67.6867 155.525 67.342 155.546 67.0816 155.589L67.3368 153.709Z" fill="#2E2E2E"/>
<path d="M49.9944 150.082L56.7845 143.221L58.123 144.554L55.3616 147.35L58.4136 150.389L61.1751 147.593L62.5347 148.932L55.7446 155.793L54.4061 154.46L57.1619 151.685L54.1098 148.646L51.3751 151.427L49.9944 150.082Z" fill="#2E2E2E"/>
<path d="M41.9805 112.147L32.3882 113.18L32.0936 110.314C31.9884 109.356 32.056 108.513 32.2698 107.8C32.4835 107.086 32.8223 106.497 33.2382 106.042C33.6809 105.571 34.1796 105.229 34.7457 104.973C35.3118 104.716 35.8974 104.556 36.5025 104.491C37.2245 104.413 37.8646 104.471 38.465 104.677C39.0655 104.884 39.5743 105.179 40.0337 105.574C40.4931 105.969 40.8398 106.447 41.1159 107.02C41.3977 107.571 41.5725 108.184 41.6248 108.833L41.9805 112.147ZM39.97 110.452L39.8412 109.33C39.7858 108.862 39.6768 108.424 39.5086 108.039C39.3405 107.654 39.1286 107.348 38.8364 107.089C38.5653 106.835 38.2293 106.654 37.8553 106.531C37.4755 106.429 37.0366 106.38 36.5694 106.436C35.9431 106.495 35.4476 106.657 35.0672 106.895C34.6869 107.133 34.4064 107.42 34.2257 107.757C34.045 108.094 33.9178 108.4 33.875 108.728C33.8322 109.057 33.8064 109.322 33.8398 109.535L33.9932 111.072L39.97 110.452Z" fill="#2E2E2E"/>
<path d="M31.7689 96.0833L32.5714 89.5442L34.3903 89.7596L33.8219 94.4123L35.8575 94.6631L36.3743 90.5405L38.1932 90.7559L37.6764 94.8785L39.7331 95.1349L40.3257 90.3074L42.1446 90.5228L41.3122 97.2579L31.7689 96.0833Z" fill="#2E2E2E"/>
<path d="M38.57 76.6917C38.2684 76.9735 37.9822 77.2821 37.7382 77.6021C37.4942 77.922 37.3191 78.2377 37.2131 78.5493C37.0632 78.9397 37.0415 79.2739 37.1268 79.5461C37.2122 79.8183 37.4102 80.0073 37.7153 80.1344C37.9206 80.2121 38.1542 80.184 38.3838 80.0869C38.619 79.9686 38.8444 79.8023 39.0601 79.5881C39.2814 79.3528 39.5027 79.1174 39.7029 78.8765C39.8975 78.6566 40.0977 78.4156 40.3345 78.2071C40.5713 77.9985 40.8235 77.8168 41.0854 77.683C41.3685 77.5549 41.6669 77.4535 42.006 77.4537C42.3508 77.4328 42.7418 77.4922 43.1735 77.6532C43.6263 77.8199 44.0296 78.0866 44.3357 78.4633C44.6418 78.8399 44.8562 79.3053 44.9368 79.8482C45.0175 80.3911 44.9432 81.0059 44.714 81.6924C44.5966 82.0462 44.437 82.3888 44.2352 82.72C44.0334 83.0512 43.8105 83.3768 43.5511 83.6699C43.2916 83.963 42.99 84.2449 42.6519 84.4942L41.5243 83.2175C41.7497 83.0513 41.9808 82.8639 42.1697 82.6652C42.3854 82.451 42.5589 82.2255 42.7112 81.9943C42.8636 81.7632 42.9681 81.5419 43.0516 81.3149C43.135 81.088 43.1706 80.8708 43.1907 80.6269C43.2108 80.383 43.1563 80.1644 43.0694 79.9825C42.9614 79.7949 42.7999 79.6383 42.5313 79.5437C42.3471 79.4716 42.1614 79.4899 41.9643 79.5504C41.7672 79.6109 41.5742 79.7405 41.3966 79.8969C41.1979 80.0476 41.009 80.2463 40.8412 80.4507C40.641 80.6917 40.414 80.9482 40.1659 81.199C39.9178 81.4498 39.6543 81.6739 39.3543 81.8654C39.0542 82.057 38.729 82.1739 38.3729 82.2371C38.0168 82.3003 37.6257 82.2409 37.1884 82.101C36.6682 81.8483 36.2649 81.5816 35.9588 81.2049C35.6528 80.8283 35.4537 80.3897 35.3829 79.8947C35.2909 79.3941 35.3271 78.8372 35.5012 78.2719C35.7417 77.5431 36.0537 76.9694 36.3682 76.555C36.7038 76.1463 37.0435 75.8067 37.4141 75.5207L38.57 76.6917Z" fill="#2E2E2E"/>
<path d="M40.1566 67.7338L41.0756 66.0762L49.5193 70.7638L48.6003 72.4215L40.1566 67.7338Z" fill="#2E2E2E"/>
<path d="M57.7273 57.9359C57.7509 58.1009 57.7364 58.3237 57.6684 58.5775C57.5948 58.8524 57.5154 59.1484 57.3882 59.4543C57.2611 59.7602 57.1128 60.0604 56.9645 60.3607C56.7951 60.6553 56.6314 60.9287 56.4369 61.1486C55.9334 61.7616 55.3796 62.2252 54.7965 62.5449C54.2134 62.8646 53.6052 63.1096 53 63.1741C52.3949 63.2386 51.7969 63.1917 51.2119 63.0123C50.6269 62.8329 50.0759 62.5266 49.5589 62.0934C48.8747 61.5247 48.3819 60.9167 48.0481 60.306C47.72 59.6741 47.5452 59.0607 47.514 58.4177C47.4771 57.7959 47.5782 57.1657 47.8001 56.5905C48.0277 55.9942 48.3551 55.4474 48.7613 54.9442C49.1617 54.4623 49.5817 54.0762 50.0058 53.7592C50.451 53.4478 50.8525 53.2154 51.2312 53.0676L52.1992 54.6868C52.0232 54.753 51.8358 54.8615 51.595 55.0009C51.3541 55.1404 51.1287 55.3066 50.9244 55.4785C50.6989 55.6447 50.5368 55.8279 50.386 55.9689C50.0504 56.3776 49.8105 56.7666 49.6395 57.1514C49.4897 57.5419 49.4088 57.9282 49.439 58.3216C49.4539 58.6882 49.5798 59.0619 49.7747 59.4314C49.9753 59.7798 50.287 60.1353 50.6734 60.4655C51.0232 60.7632 51.3803 60.9495 51.7543 61.0724C52.1284 61.1953 52.5097 61.2068 52.8869 61.1493C53.2641 61.0917 53.6372 60.965 53.9907 60.7424C54.3443 60.5199 54.667 60.2437 54.9702 59.8716C55.1802 59.6786 55.3212 59.4897 55.4201 59.2896C55.5189 59.0894 55.6178 58.8893 55.6631 58.7201L54.7809 57.9624L53.7148 59.2406L52.3099 58.0709L54.6308 55.3157L57.7273 57.9359Z" fill="#2E2E2E"/>
<path d="M70.7089 49.0622L60.9093 48.0003L61.5412 47.9203L65.0348 52.6867L63.4682 53.8081L57.5957 45.6845L57.6548 45.6323L67.3052 46.7449L66.8477 46.849L63.2868 41.9965L64.8323 40.8694L70.7203 49.0199L70.7089 49.0622Z" fill="#2E2E2E"/>
<circle cx="166.646" cy="130.282" r="7.90843" transform="rotate(15 166.646 130.282)" fill="#FF3838"/>
<path d="M88.7626 28.1993C88.8558 27.235 90.1284 26.9533 90.6198 27.7882L92.2968 30.6373C92.5166 31.0107 92.9518 31.2001 93.3747 31.1064L96.6027 30.3919C97.5485 30.1825 98.2097 31.3058 97.5675 32.0311L95.3761 34.5065C95.0889 34.8309 95.0433 35.3033 95.263 35.6766L96.9401 38.5258C97.4315 39.3606 96.5675 40.3365 95.6792 39.95L92.6478 38.6307C92.2506 38.4578 91.7872 38.5604 91.5 38.8848L89.3086 41.3602C88.6664 42.0855 87.4713 41.5654 87.5644 40.6011L87.8824 37.3104C87.924 36.8792 87.6833 36.4702 87.2861 36.2973L84.2546 34.978C83.3664 34.5915 83.4917 33.2941 84.4375 33.0847L87.6655 32.3702C88.0884 32.2766 88.403 31.9212 88.4447 31.49L88.7626 28.1993Z" fill="#5E4ADB"/>
<path d="M38.0025 127.88C38.1669 126.349 39.9268 125.57 41.1703 126.478L48.5819 131.888C49.8254 132.796 49.62 134.709 48.2121 135.332L39.8209 139.046C38.413 139.669 36.8586 138.534 37.023 137.004L38.0025 127.88Z" fill="#FFAB48"/>
</svg>
