<svg width="105" height="105" viewBox="0 0 105 105" fill="none" xmlns="http://www.w3.org/2000/svg">
<circle cx="52.286" cy="52.521" r="41.5444" transform="rotate(15 52.286 52.521)" fill="#C2F4FF" stroke="#2E2E2E" stroke-width="2"/>
<path d="M58.869 35.1606C59.0955 33.2105 60.8601 31.8133 62.8102 32.0399C64.7602 32.2664 66.1575 34.0309 65.9308 35.9811C65.8945 36.2937 65.8169 36.6 65.6998 36.8922L60.9997 55.4332L59.8518 59.633L63.0677 46.947C63.2942 44.9969 65.0588 43.5997 67.0088 43.8263C68.9589 44.0529 70.3561 45.8174 70.1295 47.7675C70.0931 48.0801 70.0155 48.3865 69.8985 48.6786L66.6827 61.3646L64.0038 71.1579C61.4255 79.1281 52.9146 82.3913 44.9464 79.8136C40.356 78.307 36.4772 75.17 34.0439 70.9962C32.0118 67.2308 27.242 57.1518 27.242 57.1518C26.3818 54.672 28.3544 51.724 29.2381 52.8168L37.6294 59.9125L39.0741 54.672L37.6294 59.9125L39.0741 54.672L44.729 33.4142C44.9555 31.4641 46.7201 30.0669 48.6701 30.2935C50.6202 30.5201 52.0174 32.2846 51.7908 34.2347C51.7544 34.5473 51.6768 34.8537 51.5598 35.1458L49.8281 41.9767L47.2377 52.3682L52.6632 30.6922C52.8897 28.7421 54.6543 27.3449 56.6044 27.5715C58.5544 27.798 59.9517 29.5625 59.725 31.5127C59.6887 31.8253 59.6111 32.1316 59.494 32.4238L53.4372 55.8308" fill="#FCEA2B"/>
<path d="M58.869 35.1606C59.0955 33.2105 60.8601 31.8133 62.8102 32.0399C64.7602 32.2664 66.1575 34.0309 65.9308 35.9811C65.8945 36.2937 65.8169 36.6 65.6998 36.8922L60.9997 55.4332L60.7472 56.357L63.0676 46.9471C63.2942 44.997 65.0588 43.5998 67.0088 43.8264C68.9588 44.053 70.3561 45.8175 70.1295 47.7676C70.0931 48.0802 70.0155 48.3866 69.8985 48.6787L66.6827 61.3646L64.0038 71.1579C61.4255 79.1281 52.9146 82.3913 44.9464 79.8136C40.356 78.307 36.4772 75.17 34.0439 70.9962C32.0118 67.2308 27.242 57.1518 27.242 57.1518C26.3818 54.672 28.3544 51.724 29.2381 52.8168L37.6294 59.9125L39.0741 54.672L37.6294 59.9125L39.0741 54.672L44.729 33.4142C44.9555 31.4641 46.7201 30.0669 48.6701 30.2935C50.6202 30.5201 52.0174 32.2846 51.7908 34.2347C51.7544 34.5473 51.6768 34.8537 51.5598 35.1458L49.8281 41.9767L47.2377 52.3682L52.6632 30.6922C52.8897 28.7421 54.6543 27.3449 56.6044 27.5715C58.5544 27.798 59.9517 29.5625 59.725 31.5127C59.6887 31.8253 59.6111 32.1316 59.494 32.4238L54.3356 52.359" stroke="#2E2E2E" stroke-width="2" stroke-linecap="round" stroke-linejoin="round"/>
</svg>
