<svg width="83" height="83" viewBox="0 0 83 83" fill="none" xmlns="http://www.w3.org/2000/svg">
<path d="M34.7657 11.2735L40.6921 21.1047C45.3961 28.9236 53.7952 33.7647 62.9212 33.9386L74.3984 34.1555L64.5673 40.0819C56.7483 44.7859 51.9072 53.1851 51.7333 62.3111L51.5164 73.7883L45.59 63.9571C40.886 56.1382 32.4869 51.2971 23.3609 51.1232L11.8837 50.9063L21.7148 44.9799C29.5337 40.2759 34.3748 31.8767 34.5488 22.7507L34.7657 11.2735Z" fill="black" stroke="black" stroke-width="2" stroke-miterlimit="10" stroke-linecap="round" stroke-linejoin="round"/>
<path d="M32.0574 8.89317L37.9838 18.7243C42.6878 26.5432 51.087 31.3843 60.2129 31.5583L71.6902 31.7751L61.859 37.7016C54.0401 42.4055 49.199 50.8047 49.025 59.9307L48.8082 71.4079L42.8818 61.5768C38.1778 53.7578 29.7786 48.9167 20.6526 48.7428L9.17543 48.5259L19.0066 42.5995C26.8255 37.8955 31.6666 29.4964 31.8405 20.3704L32.0574 8.89317Z" fill="#6852EF" stroke="black" stroke-width="2" stroke-miterlimit="10" stroke-linecap="round" stroke-linejoin="round"/>
</svg>
