<svg width="96" height="96" viewBox="0 0 96 96" fill="none" xmlns="http://www.w3.org/2000/svg">
<path d="M82.2891 12.0469C80.9596 11.9059 79.5145 12.1135 78.0625 12.6875C76.2625 13.3955 48.0576 25.2601 21.7656 36.3281L13.0781 39.9844C9.71413 41.3484 8.01562 43.5667 8.01562 46.5547C8.01562 48.6467 8.901 51.4842 13.125 53.1562L27.7891 59.0312C29.0571 62.8352 32.0022 71.6676 32.7422 74.0156C33.1822 75.4076 34.2936 78.9144 37.1016 79.7344C37.6776 79.9304 38.2786 80.0312 38.8906 80.0312C40.6626 80.0312 41.9385 79.2066 42.5625 78.7266L51.8828 70.8437L63.2031 81.3125C63.6391 81.7565 65.9469 84 69.0469 84C72.9149 84 75.8489 80.7801 76.4609 77.6641C76.7929 75.9561 87.7109 21.1482 87.7109 21.1562C88.6909 16.7602 86.9289 14.4798 85.7969 13.5078C84.8269 12.6778 83.6186 12.1879 82.2891 12.0469ZM79.6406 20.6875C78.1326 28.2475 69.9121 69.5129 68.6641 75.4609L52.1172 60.1562L40.8906 69.6641L44 57.5C44 57.5 65.4502 35.7874 66.7422 34.5234C67.7822 33.5114 68 33.1567 68 32.8047C68 32.3367 67.7591 32 67.2031 32C66.7031 32 66.0241 32.4791 65.6641 32.7031C61.0907 35.5544 41.6164 46.6489 32.0312 52.1016L18.125 46.5469L24.875 43.7109C42.071 36.4709 72.6966 23.5755 79.6406 20.6875Z" fill="white"/>
</svg>
