<svg width="206" height="205" viewBox="0 0 206 205" fill="none" xmlns="http://www.w3.org/2000/svg">
<path d="M86.9727 162.402C119.756 171.186 153.453 151.731 162.237 118.948C171.021 86.1651 151.566 52.4682 118.783 43.684C86 34.8998 52.3031 54.3547 43.5189 87.1378C34.7347 119.921 54.1896 153.618 86.9727 162.402Z" fill="white"/>
<mask id="mask0_8_32" style="mask-type:alpha" maskUnits="userSpaceOnUse" x="17" y="16" width="172" height="172">
<path d="M183.75 123.897C171.812 168.448 126.019 194.887 81.4673 182.949C36.9159 171.012 10.4772 125.219 22.4147 80.6674C34.3522 36.116 80.1454 9.67725 124.697 21.6148C169.248 33.5523 195.687 79.3455 183.75 123.897ZM49.2549 87.8592C41.2893 117.587 58.9312 148.144 88.6591 156.109C118.387 164.075 148.944 146.433 156.909 116.705C164.875 86.9771 147.233 56.4205 117.505 48.455C87.7771 40.4894 57.2205 58.1313 49.2549 87.8592Z" fill="white" stroke="#2E2E2E" stroke-width="4"/>
</mask>
<g mask="url(#mask0_8_32)">
<path d="M183.75 123.897C171.812 168.448 126.019 194.887 81.4673 182.949C36.9159 171.012 10.4772 125.219 22.4147 80.6674C34.3522 36.116 80.1454 9.67725 124.697 21.6148C169.248 33.5523 195.687 79.3455 183.75 123.897ZM49.2549 87.8592C41.2893 117.587 58.9312 148.144 88.6591 156.109C118.387 164.075 148.944 146.433 156.909 116.705C164.875 86.9771 147.233 56.4205 117.505 48.455C87.7771 40.4894 57.2205 58.1313 49.2549 87.8592Z" fill="white" stroke="#2E2E2E" stroke-width="4"/>
</g>
<path d="M164.599 137.921C168.818 139.051 173.155 136.548 174.285 132.329C175.415 128.11 172.912 123.773 168.693 122.643C164.474 121.513 160.138 124.016 159.007 128.235C157.877 132.454 160.38 136.791 164.599 137.921Z" fill="#FF3838"/>
<path d="M88.7627 28.1993C88.8559 27.235 90.1285 26.9533 90.6199 27.7882L92.2969 30.6373C92.5167 31.0107 92.9519 31.2001 93.3748 31.1064L96.6028 30.3919C97.5486 30.1825 98.2098 31.3058 97.5676 32.0311L95.3762 34.5065C95.089 34.8309 95.0434 35.3033 95.2631 35.6766L96.9402 38.5258C97.4316 39.3606 96.5676 40.3365 95.6793 39.95L92.6479 38.6307C92.2507 38.4578 91.7873 38.5604 91.5001 38.8848L89.3087 41.3602C88.6665 42.0855 87.4714 41.5654 87.5645 40.6011L87.8825 37.3104C87.9241 36.8792 87.6834 36.4702 87.2862 36.2973L84.2547 34.978C83.3665 34.5915 83.4918 33.2941 84.4376 33.0847L87.6656 32.3702C88.0885 32.2766 88.4031 31.9212 88.4448 31.49L88.7627 28.1993Z" fill="#5E4ADB"/>
<path d="M38.0025 127.88C38.1669 126.349 39.9268 125.57 41.1703 126.478L48.5819 131.888C49.8254 132.796 49.62 134.709 48.2121 135.332L39.8209 139.046C38.413 139.669 36.8586 138.534 37.023 137.004L38.0025 127.88Z" fill="#FFAB48"/>
</svg>
